<?xml version="1.0" encoding="UTF-8" standalone="no"?>
<!-- Created with Inkscape (http://www.inkscape.org/) -->

<svg
   version="1.1"
   id="svg1793"
   width="132.8624"
   height="51.094933"
   viewBox="0 0 132.8624 51.094933"
   sodipodi:docname="7148006.ai"
   xmlns:inkscape="http://www.inkscape.org/namespaces/inkscape"
   xmlns:sodipodi="http://sodipodi.sourceforge.net/DTD/sodipodi-0.dtd"
   xmlns="http://www.w3.org/2000/svg"
   xmlns:svg="http://www.w3.org/2000/svg">
  <defs
     id="defs1797">
    <clipPath
       clipPathUnits="userSpaceOnUse"
       id="clipPath1811">
      <path
         d="M 0,500 H 500 V 0 H 0 Z"
         id="path1809" />
    </clipPath>
    <clipPath
       clipPathUnits="userSpaceOnUse"
       id="clipPath1819">
      <path
         d="m 47.4655,408.91 h 16.0581 v -8.675 H 47.4655 Z"
         id="path1817" />
    </clipPath>
    <clipPath
       clipPathUnits="userSpaceOnUse"
       id="clipPath1835">
      <path
         d="m 131.054,408.91 h 16.059 v -8.675 h -16.059 z"
         id="path1833" />
    </clipPath>
    <clipPath
       clipPathUnits="userSpaceOnUse"
       id="clipPath1855">
      <path
         d="M 50.2357,421.685 H 85.0686 V 403.658 H 50.2357 Z"
         id="path1853" />
    </clipPath>
    <clipPath
       clipPathUnits="userSpaceOnUse"
       id="clipPath1887">
      <path
         d="m 109.455,422.64 h 34.829 v -18.982 h -34.829 z"
         id="path1885" />
    </clipPath>
  </defs>
  <sodipodi:namedview
     id="namedview1795"
     pagecolor="#ffffff"
     bordercolor="#000000"
     borderopacity="0.25"
     inkscape:showpageshadow="2"
     inkscape:pageopacity="0.0"
     inkscape:pagecheckerboard="0"
     inkscape:deskcolor="#d1d1d1"
     showgrid="false" />
  <g
     id="g1801"
     inkscape:groupmode="layer"
     inkscape:label="Page 1"
     transform="matrix(1.3333333,0,0,-1.3333333,-63.287464,584.74158)">
    <g
       id="g1805">
      <g
         id="g1807"
         clip-path="url(#clipPath1811)">
        <g
           id="g1813">
          <g
             id="g1815" />
          <g
             id="g1827">
            <g
               clip-path="url(#clipPath1819)"
               opacity="0.5"
               id="g1825">
              <g
                 transform="translate(63.5236,404.5725)"
                 id="g1823">
                <path
                   d="m 0,0 c 0,-2.396 -3.595,-4.338 -8.029,-4.338 -4.434,0 -8.029,1.942 -8.029,4.338 0,2.396 3.595,4.338 8.029,4.338 C -3.595,4.338 0,2.396 0,0"
                   style="fill:#ff7271;fill-opacity:1;fill-rule:nonzero;stroke:none"
                   id="path1821" />
              </g>
            </g>
          </g>
        </g>
        <g
           id="g1829">
          <g
             id="g1831" />
          <g
             id="g1843">
            <g
               clip-path="url(#clipPath1835)"
               opacity="0.5"
               id="g1841">
              <g
                 transform="translate(131.0544,404.5725)"
                 id="g1839">
                <path
                   d="m 0,0 c 0,-2.396 3.595,-4.338 8.029,-4.338 4.434,0 8.029,1.942 8.029,4.338 0,2.396 -3.595,4.338 -8.029,4.338 C 3.595,4.338 0,2.396 0,0"
                   style="fill:#ff7271;fill-opacity:1;fill-rule:nonzero;stroke:none"
                   id="path1837" />
              </g>
            </g>
          </g>
        </g>
        <g
           id="g1845"
           transform="translate(85.1231,421.1072)">
          <path
             d="m 0,0 c 0,-9.637 -7.812,-17.449 -17.449,-17.449 -9.637,0 -17.449,7.812 -17.449,17.449 0,9.637 7.812,17.449 17.449,17.449 C -7.812,17.449 0,9.637 0,0"
             style="fill:#240b4a;fill-opacity:1;fill-rule:nonzero;stroke:none"
             id="path1847" />
        </g>
        <g
           id="g1849">
          <g
             id="g1851" />
          <g
             id="g1863">
            <g
               clip-path="url(#clipPath1855)"
               id="g1861">
              <g
                 transform="translate(76.5879,416.2057)"
                 id="g1859">
                <path
                   d="m 0,0 c -4.271,-1.659 -8.485,-1.442 -12.634,0.461 -5.04,2.312 -9.039,6.832 -13.718,4.241 0.108,-9.544 7.869,-17.249 17.438,-17.249 9.273,0 16.835,7.238 17.395,16.37 C 5.637,2.481 2.813,1.092 0,0"
                   style="fill:#240b4a;fill-opacity:1;fill-rule:nonzero;stroke:none"
                   id="path1857" />
              </g>
            </g>
          </g>
        </g>
        <g
           id="g1865"
           transform="translate(79.3735,427.8136)">
          <path
             d="m 0,0 c 0,-3.478 -2.82,-6.298 -6.298,-6.298 -3.478,0 -6.297,2.82 -6.297,6.298 0,3.478 2.819,6.298 6.297,6.298 C -2.82,6.298 0,3.478 0,0"
             style="fill:#ffffff;fill-opacity:1;fill-rule:nonzero;stroke:none"
             id="path1867" />
        </g>
        <g
           id="g1869"
           transform="translate(62.1612,414.8173)">
          <path
             d="m 0,0 c 0,-1.86 -1.508,-3.368 -3.368,-3.368 -1.861,0 -3.369,1.508 -3.369,3.368 0,1.86 1.508,3.368 3.369,3.368 C -1.508,3.368 0,1.86 0,0"
             style="fill:#ffffff;fill-opacity:1;fill-rule:nonzero;stroke:none"
             id="path1871" />
        </g>
        <g
           id="g1873"
           transform="translate(61.5557,409.4811)">
          <path
             d="M 0,0 C 0,1.087 0.881,1.968 1.968,1.968 3.055,1.968 3.936,1.087 3.936,0 3.936,-1.087 3.055,-1.968 1.968,-1.968 0.881,-1.968 0,-1.087 0,0"
             style="fill:#ffffff;fill-opacity:1;fill-rule:nonzero;stroke:none"
             id="path1875" />
        </g>
        <g
           id="g1877"
           transform="translate(144.3524,421.1072)">
          <path
             d="m 0,0 c 0,-9.637 -7.812,-17.449 -17.449,-17.449 -9.636,0 -17.449,7.812 -17.449,17.449 0,9.637 7.813,17.449 17.449,17.449 C -7.812,17.449 0,9.637 0,0"
             style="fill:#240b4a;fill-opacity:1;fill-rule:nonzero;stroke:none"
             id="path1879" />
        </g>
        <g
           id="g1881">
          <g
             id="g1883" />
          <g
             id="g1895">
            <g
               clip-path="url(#clipPath1887)"
               id="g1893">
              <g
                 transform="translate(132.811,413.7267)"
                 id="g1891">
                <path
                   d="m 0,0 c -9.041,-2.052 -15.107,3.956 -22.177,8.283 -0.368,0.226 -0.735,0.435 -1.102,0.63 -0.044,-0.506 -0.077,-1.015 -0.077,-1.533 0,-9.636 7.812,-17.448 17.449,-17.448 9.18,0 16.688,7.094 17.38,16.097 C 7.627,3.965 4.404,1 0,0"
                   style="fill:#240b4a;fill-opacity:1;fill-rule:nonzero;stroke:none"
                   id="path1889" />
              </g>
            </g>
          </g>
        </g>
        <g
           id="g1897"
           transform="translate(138.6028,427.8136)">
          <path
             d="m 0,0 c 0,-3.478 -2.82,-6.298 -6.298,-6.298 -3.478,0 -6.297,2.82 -6.297,6.298 0,3.478 2.819,6.298 6.297,6.298 C -2.82,6.298 0,3.478 0,0"
             style="fill:#ffffff;fill-opacity:1;fill-rule:nonzero;stroke:none"
             id="path1899" />
        </g>
        <g
           id="g1901"
           transform="translate(121.3905,414.8173)">
          <path
             d="m 0,0 c 0,-1.86 -1.508,-3.368 -3.368,-3.368 -1.861,0 -3.368,1.508 -3.368,3.368 0,1.86 1.507,3.368 3.368,3.368 C -1.508,3.368 0,1.86 0,0"
             style="fill:#ffffff;fill-opacity:1;fill-rule:nonzero;stroke:none"
             id="path1903" />
        </g>
        <g
           id="g1905"
           transform="translate(120.785,409.4811)">
          <path
             d="M 0,0 C 0,1.087 0.881,1.968 1.968,1.968 3.055,1.968 3.936,1.087 3.936,0 3.936,-1.087 3.055,-1.968 1.968,-1.968 0.881,-1.968 0,-1.087 0,0"
             style="fill:#ffffff;fill-opacity:1;fill-rule:nonzero;stroke:none"
             id="path1907" />
        </g>
        <g
           id="g1909"
           transform="translate(106.2597,411.6388)">
          <path
             d="m 0,0 c -1.342,1.06 -3.173,-1.076 -8.971,-1.076 -5.797,0 -7.628,2.136 -8.97,1.076 -1.342,-1.059 -0.212,-9.253 8.97,-9.253 C 0.212,-9.253 1.342,-1.059 0,0"
             style="fill:#ff7271;fill-opacity:1;fill-rule:nonzero;stroke:none"
             id="path1911" />
        </g>
      </g>
    </g>
  </g>
</svg>
