<?xml version="1.0" encoding="UTF-8" standalone="no"?>
<!-- Created with Inkscape (http://www.inkscape.org/) -->

<svg
   version="1.1"
   id="svg1793"
   width="132.86185"
   height="68.489334"
   viewBox="0 0 132.86185 68.489334"
   xmlns="http://www.w3.org/2000/svg"
   xmlns:svg="http://www.w3.org/2000/svg">
  <defs
     id="defs1797">
    <clipPath
       clipPathUnits="userSpaceOnUse"
       id="clipPath1811">
      <path
         d="M 0,500 H 500 V 0 H 0 Z"
         id="path1809" />
    </clipPath>
    <clipPath
       clipPathUnits="userSpaceOnUse"
       id="clipPath2027">
      <path
         d="m 200.926,290.995 h 16.059 v -8.676 h -16.059 z"
         id="path2025" />
    </clipPath>
    <clipPath
       clipPathUnits="userSpaceOnUse"
       id="clipPath2043">
      <path
         d="m 284.515,290.995 h 16.058 v -8.676 h -16.058 z"
         id="path2041" />
    </clipPath>
    <clipPath
       clipPathUnits="userSpaceOnUse"
       id="clipPath2063">
      <path
         d="m 203.775,301.72 h 32.227 v -15.977 h -32.227 z"
         id="path2061" />
    </clipPath>
    <clipPath
       clipPathUnits="userSpaceOnUse"
       id="clipPath2095">
      <path
         d="m 262.916,306.004 h 34.501 v -20.261 h -34.501 z"
         id="path2093" />
    </clipPath>
  </defs>
  <g
     id="g1801"
     transform="matrix(1.3333333,0,0,-1.3333333,-267.90213,444.91479)">
    <g
       id="g1805">
      <g
         id="g1807"
         clip-path="url(#clipPath1811)">
        <g
           id="g2021">
          <g
             id="g2023" />
          <g
             id="g2035">
            <g
               clip-path="url(#clipPath2027)"
               opacity="0.5"
               id="g2033">
              <g
                 transform="translate(216.9846,286.6571)"
                 id="g2031">
                <path
                   d="m 0,0 c 0,-2.396 -3.595,-4.338 -8.029,-4.338 -4.434,0 -8.029,1.942 -8.029,4.338 0,2.396 3.595,4.338 8.029,4.338 C -3.595,4.338 0,2.396 0,0"
                   style="fill:#ff7271;fill-opacity:1;fill-rule:nonzero;stroke:none"
                   id="path2029" />
              </g>
            </g>
          </g>
        </g>
        <g
           id="g2037">
          <g
             id="g2039" />
          <g
             id="g2051">
            <g
               clip-path="url(#clipPath2043)"
               opacity="0.5"
               id="g2049">
              <g
                 transform="translate(284.5153,286.6571)"
                 id="g2047">
                <path
                   d="m 0,0 c 0,-2.396 3.595,-4.338 8.029,-4.338 4.434,0 8.029,1.942 8.029,4.338 0,2.396 -3.595,4.338 -8.029,4.338 C 3.595,4.338 0,2.396 0,0"
                   style="fill:#ff7271;fill-opacity:1;fill-rule:nonzero;stroke:none"
                   id="path2045" />
              </g>
            </g>
          </g>
        </g>
        <g
           id="g2053"
           transform="translate(238.584,303.1919)">
          <path
             d="m 0,0 c 0,-9.637 -7.812,-17.449 -17.449,-17.449 -9.636,0 -17.449,7.812 -17.449,17.449 0,9.637 7.813,17.449 17.449,17.449 C -7.812,17.449 0,9.637 0,0"
             style="fill:#240b4a;fill-opacity:1;fill-rule:nonzero;stroke:none"
             id="path2055" />
        </g>
        <g
           id="g2057">
          <g
             id="g2059" />
          <g
             id="g2071">
            <g
               clip-path="url(#clipPath2063)"
               id="g2069">
              <g
                 transform="translate(227.2692,292.1708)"
                 id="g2067">
                <path
                   d="m 0,0 c -5.406,0.925 -9.195,5.244 -13.95,7.569 -2.766,1.353 -6.523,2.535 -9.544,1.703 0.877,-8.815 8.314,-15.7 17.36,-15.7 6.297,0 11.799,3.347 14.867,8.349 C 6.146,0.307 3.172,-0.543 0,0"
                   style="fill:#240b4a;fill-opacity:1;fill-rule:nonzero;stroke:none"
                   id="path2065" />
              </g>
            </g>
          </g>
        </g>
        <g
           id="g2073"
           transform="translate(232.8344,309.8983)">
          <path
             d="m 0,0 c 0,-3.478 -2.82,-6.298 -6.298,-6.298 -3.478,0 -6.297,2.82 -6.297,6.298 0,3.478 2.819,6.298 6.297,6.298 C -2.82,6.298 0,3.478 0,0"
             style="fill:#ffffff;fill-opacity:1;fill-rule:nonzero;stroke:none"
             id="path2075" />
        </g>
        <g
           id="g2077"
           transform="translate(215.6221,296.902)">
          <path
             d="m 0,0 c 0,-1.86 -1.508,-3.368 -3.368,-3.368 -1.861,0 -3.369,1.508 -3.369,3.368 0,1.86 1.508,3.368 3.369,3.368 C -1.508,3.368 0,1.86 0,0"
             style="fill:#ffffff;fill-opacity:1;fill-rule:nonzero;stroke:none"
             id="path2079" />
        </g>
        <g
           id="g2081"
           transform="translate(215.0166,291.5658)">
          <path
             d="M 0,0 C 0,1.087 0.881,1.968 1.968,1.968 3.055,1.968 3.936,1.087 3.936,0 3.936,-1.087 3.055,-1.968 1.968,-1.968 0.881,-1.968 0,-1.087 0,0"
             style="fill:#ffffff;fill-opacity:1;fill-rule:nonzero;stroke:none"
             id="path2083" />
        </g>
        <g
           id="g2085"
           transform="translate(297.8134,303.1919)">
          <path
             d="m 0,0 c 0,-9.637 -7.812,-17.449 -17.449,-17.449 -9.636,0 -17.449,7.812 -17.449,17.449 0,9.637 7.813,17.449 17.449,17.449 C -7.812,17.449 0,9.637 0,0"
             style="fill:#240b4a;fill-opacity:1;fill-rule:nonzero;stroke:none"
             id="path2087" />
        </g>
        <g
           id="g2089">
          <g
             id="g2091" />
          <g
             id="g2103">
            <g
               clip-path="url(#clipPath2095)"
               id="g2101">
              <g
                 transform="translate(282.1788,294.2059)"
                 id="g2099">
                <path
                   d="m 0,0 c -6.5,1.012 -10.234,4.866 -15.017,8.941 -1.072,0.914 -2.452,1.92 -3.999,2.858 -0.149,-0.918 -0.247,-1.853 -0.247,-2.813 0,-9.637 7.812,-17.449 17.449,-17.449 8.374,0 15.363,5.902 17.052,13.771 C 11.307,1.425 6.409,-0.998 0,0"
                   style="fill:#240b4a;fill-opacity:1;fill-rule:nonzero;stroke:none"
                   id="path2097" />
              </g>
            </g>
          </g>
        </g>
        <g
           id="g2105"
           transform="translate(292.0638,309.8983)">
          <path
             d="m 0,0 c 0,-3.478 -2.82,-6.298 -6.298,-6.298 -3.478,0 -6.297,2.82 -6.297,6.298 0,3.478 2.819,6.298 6.297,6.298 C -2.82,6.298 0,3.478 0,0"
             style="fill:#ffffff;fill-opacity:1;fill-rule:nonzero;stroke:none"
             id="path2107" />
        </g>
        <g
           id="g2109"
           transform="translate(274.8515,296.902)">
          <path
             d="m 0,0 c 0,-1.86 -1.508,-3.368 -3.368,-3.368 -1.861,0 -3.369,1.508 -3.369,3.368 0,1.86 1.508,3.368 3.369,3.368 C -1.508,3.368 0,1.86 0,0"
             style="fill:#ffffff;fill-opacity:1;fill-rule:nonzero;stroke:none"
             id="path2111" />
        </g>
        <g
           id="g2113"
           transform="translate(274.2459,291.5658)">
          <path
             d="M 0,0 C 0,1.087 0.881,1.968 1.968,1.968 3.055,1.968 3.936,1.087 3.936,0 3.936,-1.087 3.055,-1.968 1.968,-1.968 0.881,-1.968 0,-1.087 0,0"
             style="fill:#ffffff;fill-opacity:1;fill-rule:nonzero;stroke:none"
             id="path2115" />
        </g>
        <g
           id="g2117"
           transform="translate(241.7793,284.5789)">
          <path
             d="m 0,0 c 1.342,-1.059 0.477,5.984 8.971,5.984 8.494,0 7.628,-7.043 8.97,-5.984 1.342,1.06 0.212,9.253 -8.97,9.253 C -0.212,9.253 -1.342,1.06 0,0"
             style="fill:#240b4a;fill-opacity:1;fill-rule:nonzero;stroke:none"
             id="path2119" />
        </g>
        <g
           id="g2121"
           transform="translate(225.2371,333.6627)">
          <path
             d="m 0,0 c -1.86,0.435 -3.367,-5.319 -7.604,-6.859 -4.236,-1.54 -6.066,-1.874 -6.265,-2.634 -0.199,-0.761 5.054,-3.763 11.392,0.036 C 3.862,-5.657 4.159,-0.973 0,0"
             style="fill:#240b4a;fill-opacity:1;fill-rule:nonzero;stroke:none"
             id="path2123" />
        </g>
        <g
           id="g2125"
           transform="translate(276.2628,333.6627)">
          <path
             d="m 0,0 c 1.86,0.435 3.367,-5.319 7.604,-6.859 4.236,-1.54 6.066,-1.874 6.265,-2.634 0.199,-0.761 -5.054,-3.763 -11.393,0.036 C -3.862,-5.657 -4.159,-0.973 0,0"
             style="fill:#240b4a;fill-opacity:1;fill-rule:nonzero;stroke:none"
             id="path2127" />
        </g>
      </g>
    </g>
  </g>
</svg>
