<?xml version="1.0" encoding="UTF-8" standalone="no"?>
<!-- Created with Inkscape (http://www.inkscape.org/) -->

<svg
   version="1.1"
   id="svg1793"
   width="132.86185"
   height="78.87867"
   viewBox="0 0 132.86185 78.87867"
   sodipodi:docname="7148006.ai"
   xmlns:inkscape="http://www.inkscape.org/namespaces/inkscape"
   xmlns:sodipodi="http://sodipodi.sourceforge.net/DTD/sodipodi-0.dtd"
   xmlns="http://www.w3.org/2000/svg"
   xmlns:svg="http://www.w3.org/2000/svg">
  <defs
     id="defs1797">
    <clipPath
       clipPathUnits="userSpaceOnUse"
       id="clipPath1811">
      <path
         d="M 0,500 H 500 V 0 H 0 Z"
         id="path1809" />
    </clipPath>
    <clipPath
       clipPathUnits="userSpaceOnUse"
       id="clipPath2143">
      <path
         d="m 200.926,415.649 h 16.059 v -8.675 h -16.059 z"
         id="path2141" />
    </clipPath>
    <clipPath
       clipPathUnits="userSpaceOnUse"
       id="clipPath2159">
      <path
         d="m 284.515,415.649 h 16.058 v -8.675 h -16.058 z"
         id="path2157" />
    </clipPath>
  </defs>
  <sodipodi:namedview
     id="namedview1795"
     pagecolor="#ffffff"
     bordercolor="#000000"
     borderopacity="0.25"
     inkscape:showpageshadow="2"
     inkscape:pageopacity="0.0"
     inkscape:pagecheckerboard="0"
     inkscape:deskcolor="#d1d1d1"
     showgrid="false" />
  <g
     id="g1801"
     inkscape:groupmode="layer"
     inkscape:label="Page 1"
     transform="matrix(1.3333333,0,0,-1.3333333,-267.90213,598.63346)">
    <g
       id="g1805">
      <g
         id="g1807"
         clip-path="url(#clipPath1811)">
        <g
           id="g2129"
           transform="translate(212.9507,419.2711)">
          <path
             d="M 0,0 C 0,-3.682 2.829,-3.682 2.829,-7.364 2.829,-11.047 0,-11.047 0,-14.729 0,-18.411 2.829,-18.411 2.829,-22.092 2.829,-25.774 0,-25.774 0,-29.455 h 13.54 c 0,3.681 2.829,3.681 2.829,7.363 0,3.681 -2.829,3.681 -2.829,7.363 0,3.682 2.829,3.682 2.829,7.365 0,3.682 -2.829,3.682 -2.829,7.364 z"
             style="fill:#97e2ff;fill-opacity:1;fill-rule:nonzero;stroke:none"
             id="path2131" />
        </g>
        <g
           id="g2133"
           transform="translate(272.18,419.2711)">
          <path
             d="M 0,0 C 0,-3.682 2.829,-3.682 2.829,-7.364 2.829,-11.047 0,-11.047 0,-14.729 0,-18.411 2.829,-18.411 2.829,-22.092 2.829,-25.774 0,-25.774 0,-29.455 h 13.54 c 0,3.681 2.829,3.681 2.829,7.363 0,3.681 -2.829,3.681 -2.829,7.363 0,3.682 2.829,3.682 2.829,7.365 0,3.682 -2.829,3.682 -2.829,7.364 z"
             style="fill:#97e2ff;fill-opacity:1;fill-rule:nonzero;stroke:none"
             id="path2135" />
        </g>
        <g
           id="g2137">
          <g
             id="g2139" />
          <g
             id="g2151">
            <g
               clip-path="url(#clipPath2143)"
               opacity="0.5"
               id="g2149">
              <g
                 transform="translate(216.9846,411.3116)"
                 id="g2147">
                <path
                   d="m 0,0 c 0,-2.396 -3.595,-4.338 -8.029,-4.338 -4.434,0 -8.029,1.942 -8.029,4.338 0,2.396 3.595,4.338 8.029,4.338 C -3.595,4.338 0,2.396 0,0"
                   style="fill:#ff7271;fill-opacity:1;fill-rule:nonzero;stroke:none"
                   id="path2145" />
              </g>
            </g>
          </g>
        </g>
        <g
           id="g2153">
          <g
             id="g2155" />
          <g
             id="g2167">
            <g
               clip-path="url(#clipPath2159)"
               opacity="0.5"
               id="g2165">
              <g
                 transform="translate(284.5153,411.3116)"
                 id="g2163">
                <path
                   d="m 0,0 c 0,-2.396 3.595,-4.338 8.029,-4.338 4.434,0 8.029,1.942 8.029,4.338 0,2.396 -3.595,4.338 -8.029,4.338 C 3.595,4.338 0,2.396 0,0"
                   style="fill:#ff7271;fill-opacity:1;fill-rule:nonzero;stroke:none"
                   id="path2161" />
              </g>
            </g>
          </g>
        </g>
        <g
           id="g2169"
           transform="translate(262.9158,433.0981)">
          <path
             d="m 0,0 c 0,9.637 4.161,-11.064 17.449,-11.064 13.287,0 17.449,20.701 17.449,11.064 0,-9.637 -7.813,-17.449 -17.449,-17.449 C 7.812,-17.449 0,-9.637 0,0"
             style="fill:#240b4a;fill-opacity:1;fill-rule:nonzero;stroke:none"
             id="path2171" />
        </g>
        <g
           id="g2173"
           transform="translate(238.584,433.0981)">
          <path
             d="m 0,0 c 0,9.637 -4.161,-11.064 -17.449,-11.064 -13.287,0 -17.449,20.701 -17.449,11.064 0,-9.637 7.813,-17.449 17.449,-17.449 C -7.812,-17.449 0,-9.637 0,0"
             style="fill:#240b4a;fill-opacity:1;fill-rule:nonzero;stroke:none"
             id="path2175" />
        </g>
        <g
           id="g2177"
           transform="translate(241.7793,407.7068)">
          <path
             d="m 0,0 c 1.342,-1.059 0.477,5.984 8.971,5.984 8.494,0 7.628,-7.043 8.97,-5.984 1.342,1.06 0.212,9.253 -8.97,9.253 C -0.212,9.253 -1.342,1.06 0,0"
             style="fill:#240b4a;fill-opacity:1;fill-rule:nonzero;stroke:none"
             id="path2179" />
        </g>
        <g
           id="g2181"
           transform="translate(225.2371,448.9517)">
          <path
             d="m 0,0 c -1.86,0.435 -3.367,-5.319 -7.604,-6.859 -4.236,-1.54 -6.066,-1.874 -6.265,-2.635 -0.199,-0.76 5.054,-3.763 11.392,0.037 C 3.862,-5.657 4.159,-0.973 0,0"
             style="fill:#240b4a;fill-opacity:1;fill-rule:nonzero;stroke:none"
             id="path2183" />
        </g>
        <g
           id="g2185"
           transform="translate(276.2628,448.9517)">
          <path
             d="m 0,0 c 1.86,0.435 3.367,-5.319 7.604,-6.859 4.236,-1.54 6.066,-1.874 6.265,-2.635 0.199,-0.76 -5.054,-3.763 -11.393,0.037 C -3.862,-5.657 -4.159,-0.973 0,0"
             style="fill:#240b4a;fill-opacity:1;fill-rule:nonzero;stroke:none"
             id="path2187" />
        </g>
      </g>
    </g>
  </g>
</svg>
