<svg width="28" height="28" viewBox="0 0 28 28" fill="none" xmlns="http://www.w3.org/2000/svg">
<path d="M19.09 2.65617C20.622 4.1895 19.3807 7.91617 16.3153 10.9828C13.25 14.0482 9.52202 15.2908 7.98868 13.7575M19.09 2.65617C17.5567 1.12284 13.83 2.36684 10.7647 5.43217C7.69802 8.4975 6.45668 12.2255 7.98868 13.7575M19.09 2.65617C19.5719 3.13797 19.9903 3.67922 20.3354 4.26684C23.438 9.4375 25.2353 12.5028 25.7313 13.4602C26.4754 14.8975 25.6314 16.4668 23.7154 18.3828C21.7994 20.2988 20.23 21.1415 18.7927 20.3988L9.59935 15.0028C9.01268 14.6588 8.47135 14.2402 7.98868 13.7575M4.66602 19.3335L6.61935 21.5175C6.96791 21.8922 7.20128 22.3593 7.29162 22.863C7.38195 23.3668 7.32543 23.8858 7.1288 24.3583C6.93217 24.8308 6.60374 25.2367 6.18271 25.5276C5.76167 25.8186 5.26582 25.9822 4.75434 25.999C4.24285 26.0158 3.73733 25.885 3.29812 25.6224C2.85891 25.3597 2.50456 24.9762 2.27736 24.5176C2.05016 24.0591 1.95971 23.5448 2.0168 23.0362C2.0739 22.5277 2.27613 22.0463 2.59935 21.6495L4.66602 19.3335Z" stroke="white" stroke-width="2.5" stroke-linecap="round" stroke-linejoin="round"/>
</svg>
