<?xml version="1.0" encoding="UTF-8" standalone="no"?>
<!-- Created with Inkscape (http://www.inkscape.org/) -->

<svg
   version="1.1"
   id="svg2"
   width="1143.8511"
   height="1080.9784"
   viewBox="0 0 1143.8511 1080.9784"
   xmlns="http://www.w3.org/2000/svg"
   xmlns:svg="http://www.w3.org/2000/svg">
  <defs
     id="defs6" />
  <g
     id="g10"
     transform="matrix(1.3333333,0,0,-1.3333333,-1445.9836,1379.8403)">
    <g
       id="g12"
       transform="scale(0.1)">
      <path
         d="m 13520.6,7235.9 c 33,36.8 62.3,77.2 87.4,119.7 29.4,49.7 54,107.1 50.8,163.4 21.7,-23.8 42.7,-48.2 62.2,-73.9 36.9,-48.7 69.1,-100.9 97,-155.2 -107.9,-16.7 -207.1,-35 -297.4,-54 z m 5902.9,1690.8 c -8.7,230.9 -234.3,321.5 -428.6,255.4 -116.3,-39.6 -233.6,-81.1 -335.7,-149.5 -102.1,-68.4 -188.9,-167.4 -217.7,-286.9 -7.6,-31.5 -10.3,-64.4 -8.4,-97 -64.1,12.5 -129.3,28 -195.9,40.3 -104.2,19 -209.8,28.2 -315.5,28.2 -7.6,0 -15.1,-0.4 -22.7,-0.5 50.6,30.9 96.4,72.9 136.6,116.5 92.2,99.9 170.9,216.3 205.2,347.9 34.4,131.6 19.8,280.1 -59.8,390.3 -135.3,187.2 -373.3,137.5 -498.2,-25.3 -74.9,-97.4 -149.5,-197.1 -196.5,-310.6 -46.9,-113.6 -64.2,-244.1 -21.9,-359.5 27.4,-74.7 83.5,-140.3 153,-177.2 0.2,-2.4 0.3,-4.8 0.6,-7.3 -323.2,-54.2 -632.2,-193.4 -882.3,-406.5 -58.7,-50.1 -113.5,-104.5 -165.1,-161.7 10,75.5 -0.1,153.8 -31.4,223.2 -44,97.5 -156,217.1 -270,227.9 -120.4,11.4 -182.6,-185 -187.2,-277.3 -5.5,-111.3 32.8,-221.3 90,-316.9 33.4,-55.7 78.8,-111.3 142.5,-124.7 19.1,-4 38.1,-3.6 56.5,0 -110,-179.8 -189.3,-378.3 -232.9,-584.5 -137.9,20.2 -271.7,36.8 -401.5,50.1 51.3,51.5 91.1,119.3 58.5,175.5 -49,84.2 -181.2,128.1 -272.2,127.4 -107.1,-0.9 -212.6,-54.4 -276.5,-140.4 -0.7,-0.9 -1.4,-1.9 -2,-2.8 -10.6,382.9 -115.2,763.9 -298.4,1101.4 -134.5,247.8 -311.5,472.1 -524.7,656 13.5,-2.3 27.2,-3.6 40.8,-3.8 99.8,-1.3 195.2,47.2 269.5,113.9 74.3,66.7 130.5,150.7 185,234.4 90.9,139.7 64.8,335.4 -115.2,388.5 -106,31.3 -223.7,2.3 -315.2,-59.5 -91.6,-61.9 -159.5,-153.6 -211.2,-251.2 -44.1,-83.5 -78.1,-181.8 -47.3,-271 0.4,-1.3 1,-2.4 1.4,-3.6 -35,23.9 -70.7,47 -107.2,68.8 -206.9,123.4 -432.6,208.7 -666.2,258.3 40.1,39.7 53.2,100.9 57.1,158.1 7.3,105.9 -7.9,215.9 -60.7,307.9 -43.8,76.4 -181.6,216.2 -278.8,154.5 -92.2,-58.5 -135.5,-208.5 -130.7,-310.3 4.8,-100.9 51.7,-198.5 125.4,-267.4 -69.9,6 -140.1,9.2 -210.3,9.2 -446.8,0 -894.9,-122 -1274.4,-355.7 -61.9,69.7 -160.7,107.8 -255.5,103.2 -122.7,-6 -236.3,-72.7 -322.5,-160.2 -86.3,-87.5 -149,-195 -209.7,-301.9 -101.2,-178.5 -54.3,-417.1 170.8,-468.8 132.6,-30.4 275,14.1 382.8,96.9 107.9,82.9 184.4,200.7 240.5,324.6 48,105.8 82.3,229.2 37.8,336.5 -0.4,1 -0.9,1.9 -1.4,2.9 263.1,161.7 561,268.1 868.4,315.1 -30.3,-20.8 -58.7,-44.5 -84.3,-70.5 -80.3,-81.4 -138.6,-181.3 -194.9,-280.8 -94.2,-165.9 -50.6,-387.8 158.8,-435.9 123.2,-28.3 255.7,13.1 356,90.2 100.3,77.1 171.4,186.6 223.6,301.8 44.7,98.4 76.6,213.2 35.2,313 -18.9,45.4 -52.1,82.5 -92.8,109.6 380.8,-6.1 758.2,-103.5 1085.1,-298.5 336.6,-200.7 607.9,-497.5 795,-842.2 71.5,-131.7 130.5,-270.3 176.3,-413 -55.2,67.6 -123.6,124.7 -186.9,159.6 -159.6,88 -360.6,96.5 -527,22.4 -116.2,-51.8 -223.2,-163.2 -207,-289.4 12,-93.3 86.8,-165.3 163.3,-219.9 131.2,-93.6 285.4,-161.5 446.4,-166.4 108.2,-3.3 319.4,40 394.3,149.6 20,-122.6 30.4,-246.5 30.4,-370.2 0,-18.6 -0.6,-37.1 -1,-55.6 -499.1,18.3 -921.7,-11.3 -1263.8,-59.3 -32.5,67.4 -71.8,131.4 -116.9,191 -44.6,58.8 -95.1,113.2 -150.3,162.2 54,9.9 104.1,51.4 135.3,99.3 60.5,92.9 74.7,214.5 37.1,318.8 -31.9,88.6 -121.9,201.2 -221.3,218.5 -104.8,18.3 -172.8,-149.8 -183.2,-230.4 -12.3,-95.1 12.4,-191.9 54.3,-278.3 -47.4,27.3 -96.8,51.2 -148.3,70.6 -118.6,44.6 -244.5,66.1 -370.4,66.1 -123.7,-0.1 -247.6,-20.9 -364.8,-61 40.1,76.7 29.1,177.9 -24.3,258.4 -50.9,76.8 -103.5,153.9 -172.7,214.9 -69.1,61 -157.6,105 -249.8,103 -92.2,-2 -185.9,-57.7 -215.2,-145.1 -27.7,-82.6 4.5,-173.2 45.9,-249.9 48.5,-89.7 112,-173.9 197,-230.2 54.7,-36.3 119.2,-59.6 184.3,-64 -55.9,-35.8 -108.7,-76.7 -157,-122.9 -185.7,-178.1 -298.3,-424.1 -324.2,-678.4 0,-0.2 -0.2,-0.4 -0.2,-0.6 -1.5,-5.4 -1.8,-10.8 -1.1,-16 -2.8,-31.7 -4.4,-63.6 -4.4,-95.4 0,-110.2 16.6,-220.4 51.2,-325.7 10.6,-32.3 22.7,-63.7 35.8,-94.5 -40.1,10.8 -86,8.3 -126.2,-4.1 -102.3,-31.6 -188,-113.2 -224.5,-213.9 -31,-85.5 -33.7,-224.8 29.4,-299 66.6,-78.4 221,4.4 278.5,58 69.4,64.5 111.3,154.2 133.2,246.4 1.7,7.3 3.2,14.7 4.6,22.2 6.5,-11.6 13.1,-23.2 19.7,-34.8 58,-101.3 118.9,-199.5 169.2,-300.8 64.6,-129.8 111.4,-276.4 111.3,-414.3 0,-65.1 -10.4,-128.2 -33.6,-187.8 -58.5,57 -147.1,78.1 -230.1,86.4 -160.4,15.9 -327.8,-1.8 -470,-77.6 -118,-62.9 -336.6,-265.3 -247.6,-415.7 84.5,-142.6 309.9,-215.5 464.6,-212.9 182.2,2.9 360.8,95.5 468.3,242.5 62.1,85 98.2,202.1 65.5,297.5 2.9,5.4 5.9,10.6 8.5,16.1 38,80.2 53.8,165.8 53.8,251.5 -0.1,155.7 -51.5,312.4 -119.6,449.6 -52.6,105.8 -114.3,205.3 -171.4,305 -57.1,99.6 -109.3,199.4 -144,305 -27.1,82.4 -42.1,168.4 -46.1,255.2 49.6,-81.9 117.3,-155.1 203.5,-196.4 73.3,-35.2 251.4,-69.5 293.1,28.3 39.5,92.8 -6,229.7 -62.9,304.6 -67.1,88.3 -176.9,142.6 -287.8,142.3 -44.1,0 -91.2,-11.7 -127.8,-35.4 39.3,202.3 138.1,393.5 286.3,535.3 185.2,177.7 444.2,274.9 701.6,274.8 116.9,0 233.3,-20 342.4,-61.1 63.2,-23.8 123.5,-54.7 180.3,-91.4 -12.1,1.4 -24.2,2.1 -36.1,2.1 -136,0.3 -270.7,-66.3 -353,-174.6 -69.9,-92 -125.7,-259.9 -77.2,-373.7 6.9,-16.3 17.1,-29.3 29.4,-40 -117.3,-40.1 -177.3,-68.5 -177.3,-68.5 -3.8,-40.5 -7,-81 -9.9,-121.5 -2.5,-36.4 -4.8,-72.8 -6.8,-109.2 -0.1,-1.2 -0.2,-2.5 -0.2,-3.7 v -0.1 c -78.1,-1429.7 340.6,-2822.6 941.3,-3926.5 v 0 c 12.5,-23 24.9,-46 37.6,-68.7 -0.6,-24 -1.1,-45 -1.7,-63.8 -1.8,-56.4 -4,-92.7 -6.4,-129.3 -4.4,-64.3 17.9,-125.2 58.2,-170.8 5.8,-6.5 11.9,-12.7 18.4,-18.6 7.4,-6.7 15.2,-12.9 23.5,-18.6 22,-15.3 46.9,-27 74.1,-34.1 347.4,-90.6 724.1,-131.1 1097,-126.6 373,-4.5 749.6,36 1097.1,126.6 20.3,5.3 39.5,13.2 57,23.3 17.6,10.1 33.6,22.3 47.8,36.2 9.4,9.3 17.8,19.4 25.5,30 3.7,5.1 7.1,10.5 10.4,15.9 1.5,2.4 3.2,4.8 4.6,7.3 18.1,32.6 28.5,69.7 29.4,108.6 0.1,6.9 0,13.8 -0.5,20.8 -2.5,36.6 -4.6,72.9 -6.4,129.3 -0.6,18.8 -1.2,39.8 -1.7,63.8 23.2,41.7 46.1,84 68.8,126.6 6.8,12.7 13.5,25.5 20.2,38.3 16.2,30.8 32.3,61.7 48.2,92.9 7.2,14.1 14.3,28.2 21.4,42.3 16.2,32.2 32.2,64.7 48.1,97.3 5.8,12 11.7,23.9 17.4,36 43.8,91.2 86.3,184 127.3,278.4 2.8,6.4 5.5,12.9 8.3,19.4 17.5,40.7 34.8,81.7 51.8,122.9 4.3,10.4 8.5,20.9 12.8,31.4 16,39.3 31.7,78.8 47.2,118.5 3.6,9.3 7.2,18.6 10.8,27.9 18.6,48.2 36.8,96.7 54.5,145.6 -0.1,-0.1 -0.2,-0.2 -0.3,-0.3 248.3,684.6 414,1431.1 446.3,2199.5 v 0 c 1.6,39 2.8,78.2 3.8,117.3 0.4,16.6 0.6,33.1 0.8,49.7 0.5,26.9 0.8,53.9 0.9,81 0.1,16.3 0.1,32.7 0.1,49.1 -0.1,34.4 -0.6,68.8 -1.2,103.3 -0.2,7.9 -0.2,15.8 -0.4,23.8 -1,42 -2.5,84 -4.3,126.1 -0.6,13 -1.3,26.1 -2,39.1 -1.6,31.8 -3.4,63.6 -5.5,95.4 -0.8,12.8 -1.6,25.7 -2.5,38.5 -3.1,43.2 -6.5,86.4 -10.6,129.7 -224.7,58.9 -441.5,108.5 -650.4,150 57.5,48.7 113.4,123.7 78.3,184.2 -45.2,77.6 -167,118.1 -250.8,117.4 -82.5,-0.7 -163.6,-35.6 -222.5,-93.1 87.1,292.7 249.6,563.6 470.8,773.6 -17.7,-66.3 -5.5,-140.9 14.7,-208.2 29.9,-99.6 76,-196.7 149.3,-270.5 73.2,-73.8 176.7,-122 280.3,-112.5 175.9,16.3 235.7,192.4 177.2,338 -35.1,87.2 -71.7,175.1 -128.2,250.2 -56.4,75.1 -135.7,137.3 -228.2,154.3 -25.8,4.7 -52.5,4.9 -78.7,1.5 159.9,112.7 339.7,197 528.2,250.8 2.9,-0.6 5.9,-1.1 9,-1.1 v 0 c 124.6,-0.3 241.5,-53.2 337.4,-138.3 95.8,-85 169.4,-202 205.7,-325.2 4.8,-16.5 8.7,-33.3 12.5,-50 -16.9,12.8 -35.8,23.1 -55.9,29.4 -64.1,19.9 -134.8,6.9 -195.4,-21.9 -60.7,-28.8 -113,-72.2 -164.1,-115.7 -85.3,-72.6 -105.9,-203.8 0,-272.4 62.3,-40.4 143.7,-44.3 214.5,-21.9 70.9,22.3 132.1,68.5 184.1,121.5 14.5,14.8 28.4,31 40.8,48.1 -1.9,-165.3 -39,-334.7 -89.6,-496.6 -39.4,-126.2 -86.9,-251.2 -131.7,-378.1 -0.2,-0.5 -0.6,-0.9 -0.8,-1.4 -0.7,-1.8 -1.2,-3.7 -1.7,-5.5 -45.3,-128.9 -87.6,-259.8 -115.3,-395.9 -18.1,-89 -29.6,-181.1 -29.6,-273.3 0,-99.1 13.3,-198.4 46.3,-293.7 32.1,-92.5 84.6,-179.3 153.5,-249.7 39.5,-40.2 84.5,-74.8 134,-101.7 33.9,-58.9 87.3,-106.7 148.3,-137.4 79.7,-40.1 171.3,-52.9 260.4,-48.1 225.6,12.2 447.4,146.5 538.7,353.2 29.1,66 45,138.8 38.7,210.6 -6.4,71.9 -36.2,142.6 -88.5,192.4 -36.1,34.5 -86.8,58.4 -137.7,55.4 -43.9,-2.5 -69.5,-33.5 -102.7,-59.2 -90.1,-70.1 -195.5,-120.5 -306.8,-146 -112.9,-25.9 -241.2,-31.5 -322.4,-114.4 -47.4,-48.5 -68.9,-118.1 -64.8,-186.1 -14,11.6 -27.6,23.8 -40.4,36.9 -60.1,61.3 -106.9,138.5 -135.2,220.2 -29.6,85.2 -42,175.6 -42,267.6 0,85.6 10.7,172.5 28,257.5 16.4,81 39,161 64.2,240.5 20.1,-55.2 59.2,-105.4 101.1,-148.2 72.8,-74.3 158.6,-138.9 257.8,-170.2 99.2,-31.3 213.2,-26 300.5,30.6 148.2,96.2 119.4,279.9 -0.1,381.6 -71.5,60.9 -144.8,121.8 -229.7,162 -84.9,40.3 -184,58.5 -273.8,30.7 -24.4,-7.6 -47.8,-19.3 -69,-33.9 33.2,92.4 66.8,185.3 96.5,279.9 53.3,170.7 93.5,352.1 93.6,533.4 0,98.2 -11.9,196.4 -40.2,292.2 -40.7,137.9 -121.5,266.6 -229,362.2 -60.1,53.4 -129,96.6 -203.9,124.3 95.9,16 193.1,24.5 290.2,24.5 101,0 201.9,-8.9 301.2,-27 73.6,-13.2 148.6,-31.9 225.6,-45.8 19,-59.1 54.8,-111.8 106.8,-146 97.1,-63.8 224.7,-53.2 337.6,-25.8 132.2,32 262.2,85.1 363.8,175.6 101.6,90.4 171.9,222 166.8,357.9"
         style="fill:#fbd33e;fill-opacity:1;fill-rule:nonzero;stroke:none"
         id="path188" />
      <path
         d="m 13048.5,9528.4 c 5.7,-25.5 3.7,-52 0.6,-78 -11.2,-93.3 -38.4,-187.8 -98.2,-260.4 -16.6,-20.1 -45.1,-39.5 -66.6,-24.6 -18.1,12.5 -15.9,39.6 -10,60.8 16,57.3 44.7,110.3 62,167.2 10.8,35.4 15.8,72 12.2,109 -2.2,22.6 -13.9,54 -3,76.1 29.2,59.3 94.6,-11.6 103,-50.1 z M 15522.9,7624 c -107.1,-0.9 -212.6,-54.4 -276.5,-140.4 -0.7,-0.9 -1.4,-1.9 -2,-2.8 -10.6,382.9 -115.2,763.9 -298.4,1101.4 -134.5,247.8 -311.5,472.1 -524.7,656 13.5,-2.3 27.2,-3.6 40.8,-3.8 99.8,-1.3 195.2,47.2 269.5,113.9 74.3,66.7 130.5,150.7 185,234.4 90.9,139.7 64.8,335.4 -115.2,388.5 -106,31.3 -223.7,2.3 -315.2,-59.5 -91.6,-61.9 -159.5,-153.6 -211.2,-251.2 -44.1,-83.5 -78.1,-181.8 -47.3,-271 0.4,-1.3 1,-2.4 1.4,-3.6 -35,23.9 -70.7,47 -107.2,68.8 -206.9,123.4 -432.6,208.7 -666.2,258.3 40.1,39.7 53.2,100.9 57.1,158.1 7.3,105.9 -7.9,215.9 -60.7,307.9 -43.8,76.4 -181.6,216.2 -278.8,154.5 -92.2,-58.5 -135.5,-208.5 -130.7,-310.3 4.8,-100.9 51.7,-198.5 125.4,-267.4 -69.9,6 -140.1,9.2 -210.3,9.2 -446.8,0 -894.9,-122 -1274.4,-355.7 -61.9,69.7 -160.7,107.8 -255.5,103.2 -122.7,-6 -236.3,-72.7 -322.5,-160.2 -86.3,-87.5 -149,-195 -209.7,-301.9 -101.2,-178.5 -54.3,-417.1 170.8,-468.8 132.6,-30.4 275,14.1 382.8,96.9 107.9,82.9 184.4,200.7 240.5,324.6 48,105.8 82.3,229.2 37.8,336.5 -0.4,1 -0.9,1.9 -1.4,2.9 263.1,161.7 561,268.1 868.4,315.1 -30.3,-20.8 -58.7,-44.5 -84.3,-70.5 -80.3,-81.4 -138.6,-181.3 -194.9,-280.8 -94.2,-165.9 -50.6,-387.8 158.8,-435.9 123.2,-28.3 255.7,13.1 356,90.2 100.3,77.1 171.4,186.6 223.6,301.8 44.7,98.4 76.6,213.2 35.2,313 -18.9,45.4 -52.1,82.5 -92.8,109.6 380.8,-6.1 758.2,-103.5 1085.1,-298.5 336.6,-200.7 607.9,-497.5 795,-842.2 71.5,-131.7 130.5,-270.3 176.3,-413 -55.2,67.6 -123.6,124.7 -186.9,159.6 -159.6,88 -360.6,96.5 -527,22.4 -116.2,-51.8 -223.2,-163.2 -207,-289.4 12,-93.3 86.8,-165.3 163.3,-219.9 131.2,-93.6 285.4,-161.5 446.4,-166.4 108.2,-3.3 319.4,40 394.3,149.6 20,-122.6 30.4,-246.5 30.4,-370.2 0,-18.6 -0.6,-37.1 -1,-55.6 -4.1,-161.5 -25.9,-322.2 -66.6,-478.7 3.1,0 6.2,0 9.4,0 24.2,0.1 48.5,0.3 72.7,0.4 30.8,123.4 50.4,248.9 59.2,375.2 34.2,-31.1 84,-43.3 131,-48.3 94.3,-10.2 192.8,-0.6 276.8,43.3 25.6,13.4 59.3,37.9 89.1,67.8 51.3,51.5 91.1,119.3 58.5,175.5 -49,84.2 -181.2,128.1 -272.2,127.4"
         style="fill:#89d25e;fill-opacity:1;fill-rule:nonzero;stroke:none"
         id="path190" />
      <path
         d="m 19205,8624.6 c -71.7,-69.2 -159.4,-121.9 -254.8,-150.8 -17.6,-5.3 -40.5,-8.1 -50.7,7.1 -10,14.9 0.5,34.8 12.1,48.5 68.1,80.2 178,118.3 239.7,203.6 19.8,27.5 33.8,58.9 53.4,86.6 19.5,27.7 46.7,52.7 80.2,58.1 15.7,2.6 32.9,0.3 45.4,-9.5 63.5,-49.5 -89.4,-209 -125.3,-243.6 z m -11.2,400.4 c 23.7,41.6 90.2,59.6 127.9,24.4 20.4,-19 20.7,-53.7 4.6,-76.4 -16.1,-22.8 -44.9,-34.1 -72.8,-34.4 -23.3,-0.2 -48.6,8.1 -60.9,28 -10.7,17.4 -8.9,40.7 1.2,58.4 z m -357.3,-592.1 c -14.6,-9.8 -35.9,-8.9 -48.7,3.2 -26,24.7 -6.9,82.8 31.4,79.6 39.9,-3.3 47.5,-62.3 17.3,-82.8 z m -163.9,-2792.4 c 25.8,89.9 106,157.2 128,248 9,37.2 9.3,103.9 56.1,116.5 43.5,11.7 55.1,-39.4 53.5,-70.8 -4.3,-86.3 -35.2,-171.1 -86.4,-240.6 -28.1,-38.1 -62.5,-71.8 -101.7,-98.4 -9.7,-6.5 -21.1,-13 -32.5,-10.3 -10.6,2.6 -18,12.8 -20.1,23.5 -2.1,10.6 0.1,21.7 3.1,32.1 z m 121.2,524.9 c 40.1,27.7 81.6,-17.1 90.5,-54.7 4.7,-19.7 -1.2,-42.8 -17.8,-54.3 -16.9,-11.8 -40.5,-9 -58.4,1 -18.9,10.7 -33.6,29.4 -37.1,50.8 -3.6,21.3 5,44.8 22.8,57.2 z m 629.7,2761.3 c -8.7,230.9 -234.3,321.5 -428.6,255.4 -116.3,-39.6 -233.6,-81.1 -335.7,-149.5 -102.1,-68.4 -188.9,-167.4 -217.7,-286.9 -7.6,-31.5 -10.3,-64.4 -8.4,-97 -64.1,12.5 -129.3,28 -195.9,40.3 -104.2,19 -209.8,28.2 -315.5,28.2 -7.6,0 -15.1,-0.4 -22.7,-0.5 50.6,30.9 96.4,72.9 136.6,116.5 92.2,99.9 170.9,216.3 205.2,347.9 34.4,131.6 19.8,280.1 -59.8,390.3 -135.3,187.2 -373.3,137.5 -498.2,-25.3 -74.9,-97.4 -149.5,-197.1 -196.5,-310.6 -46.9,-113.6 -64.2,-244.1 -21.9,-359.5 27.4,-74.7 83.5,-140.3 153,-177.2 0.2,-2.4 0.3,-4.8 0.6,-7.3 -323.2,-54.2 -632.2,-193.4 -882.3,-406.5 -58.7,-50.1 -113.5,-104.5 -165.1,-161.7 10,75.5 -0.1,153.8 -31.4,223.2 -44,97.5 -156,217.1 -270,227.9 -120.4,11.4 -182.6,-185 -187.2,-277.3 -5.5,-111.3 32.8,-221.3 90,-316.9 33.4,-55.7 78.8,-111.3 142.5,-124.7 19.1,-4 38.1,-3.6 56.5,0 -110,-179.8 -189.3,-378.3 -232.9,-584.5 -24.5,-115.8 -37.8,-233.8 -38.9,-352.3 26.5,1.9 53,4 79.6,6 1,79.6 7.7,159 20,237.7 30.7,-39.7 84.2,-53.7 134.3,-59 86.8,-9.4 177.6,-0.5 255,39.9 16.8,8.8 37.3,22.8 57.7,40 57.5,48.7 113.4,123.7 78.3,184.2 -45.2,77.6 -167,118.1 -250.8,117.4 -82.5,-0.7 -163.6,-35.6 -222.5,-93.1 87.1,292.7 249.6,563.6 470.8,773.6 -17.7,-66.3 -5.5,-140.9 14.7,-208.2 29.9,-99.6 76,-196.7 149.3,-270.5 73.2,-73.8 176.7,-122 280.3,-112.5 175.9,16.3 235.7,192.4 177.2,338 -35.1,87.2 -71.7,175.1 -128.2,250.2 -56.4,75.1 -135.7,137.3 -228.2,154.3 -25.8,4.7 -52.5,4.9 -78.7,1.5 159.9,112.7 339.7,197 528.2,250.8 2.9,-0.6 5.9,-1.1 9,-1.1 v 0 c 124.6,-0.3 241.5,-53.2 337.4,-138.3 95.8,-85 169.4,-202 205.7,-325.2 4.8,-16.5 8.7,-33.3 12.5,-50 -16.9,12.8 -35.8,23.1 -55.9,29.4 -64.1,19.9 -134.8,6.9 -195.4,-21.9 -60.7,-28.8 -113,-72.2 -164.1,-115.7 -85.3,-72.6 -105.9,-203.8 0,-272.4 62.3,-40.4 143.7,-44.3 214.5,-21.9 70.9,22.3 132.1,68.5 184.1,121.5 14.5,14.8 28.4,31 40.8,48.1 -1.9,-165.3 -39,-334.7 -89.6,-496.6 -39.4,-126.2 -86.9,-251.2 -131.7,-378.1 -0.2,-0.5 -0.6,-0.9 -0.8,-1.4 -0.7,-1.8 -1.2,-3.7 -1.7,-5.5 -45.3,-128.9 -87.6,-259.8 -115.3,-395.9 -18.1,-89 -29.6,-181.1 -29.6,-273.3 0,-99.1 13.3,-198.4 46.3,-293.7 32.1,-92.5 84.6,-179.3 153.5,-249.7 39.5,-40.2 84.5,-74.8 134,-101.7 33.9,-58.9 87.3,-106.7 148.3,-137.4 79.7,-40.1 171.3,-52.9 260.4,-48.1 225.6,12.2 447.4,146.5 538.7,353.2 29.1,66 45,138.8 38.7,210.6 -6.4,71.9 -36.2,142.6 -88.5,192.4 -36.1,34.5 -86.8,58.4 -137.7,55.4 -43.9,-2.5 -69.5,-33.5 -102.7,-59.2 -90.1,-70.1 -195.5,-120.5 -306.8,-146 -112.9,-25.9 -241.2,-31.5 -322.4,-114.4 -47.4,-48.5 -68.9,-118.1 -64.8,-186.1 -14,11.6 -27.6,23.8 -40.4,36.9 -60.1,61.3 -106.9,138.5 -135.2,220.2 -29.6,85.2 -42,175.6 -42,267.6 0,85.6 10.7,172.5 28,257.5 16.4,81 39,161 64.2,240.5 20.1,-55.2 59.2,-105.4 101.1,-148.2 72.8,-74.3 158.6,-138.9 257.8,-170.2 99.2,-31.3 213.2,-26 300.5,30.6 148.2,96.2 119.4,279.9 -0.1,381.6 -71.5,60.9 -144.8,121.8 -229.7,162 -84.9,40.3 -184,58.5 -273.8,30.7 -24.4,-7.6 -47.8,-19.3 -69,-33.9 33.2,92.4 66.8,185.3 96.5,279.9 53.3,170.7 93.5,352.1 93.6,533.4 0,98.2 -11.9,196.4 -40.2,292.2 -40.7,137.9 -121.5,266.6 -229,362.2 -60.1,53.4 -129,96.6 -203.9,124.3 95.9,16 193.1,24.5 290.2,24.5 101,0 201.9,-8.9 301.2,-27 73.6,-13.2 148.6,-31.9 225.6,-45.8 19,-59.1 54.8,-111.8 106.8,-146 97.1,-63.8 224.7,-53.2 337.6,-25.8 132.2,32 262.2,85.1 363.8,175.6 101.6,90.4 171.9,222 166.8,357.9"
         style="fill:#89d25e;fill-opacity:1;fill-rule:nonzero;stroke:none"
         id="path192" />
      <path
         d="m 12045.8,4824.3 c -5.8,-14.1 -16.7,-26.1 -30,-33.5 -8.1,-4.6 -17.1,-7.4 -26.4,-7.9 -47.4,-3 -82.7,53.2 -45.4,88.4 27.7,26.2 87.8,27.7 103.6,-13.3 4.2,-10.7 2.5,-23 -1.8,-33.7 z m -162.6,-3.1 c -3.2,-26.2 -32.8,-39.6 -58.5,-45.7 -90,-21.2 -186.9,-12.2 -271.5,25.3 -28.2,12.5 -55.3,28.3 -77,50.2 -17.7,17.9 -47.2,56.9 -40.9,84.5 9.1,39.7 64.3,37.2 92.7,26.8 19,-7 36.6,-17.3 55.3,-25.1 82.9,-34.6 182.1,-18.4 261.1,-61.2 20.9,-11.3 41.8,-31.1 38.8,-54.8 z m 2018,2480.9 c -32.5,67.4 -71.8,131.4 -116.9,191 -44.6,58.8 -95.1,113.2 -150.3,162.2 54,9.9 104.1,51.4 135.3,99.3 60.5,92.9 74.7,214.5 37.1,318.8 -31.9,88.6 -121.9,201.2 -221.3,218.5 -104.8,18.3 -172.8,-149.8 -183.2,-230.4 -12.3,-95.1 12.4,-191.9 54.3,-278.3 -47.4,27.3 -96.8,51.2 -148.3,70.6 -118.6,44.6 -244.5,66.1 -370.4,66.1 -123.7,-0.1 -247.6,-20.9 -364.8,-61 40.1,76.7 29.1,177.9 -24.3,258.4 -50.9,76.8 -103.5,153.9 -172.7,214.9 -69.1,61 -157.6,105 -249.8,103 -92.2,-2 -185.9,-57.7 -215.2,-145.1 -27.7,-82.6 4.5,-173.2 45.9,-249.9 48.5,-89.7 112,-173.9 197,-230.2 54.7,-36.3 119.2,-59.6 184.3,-64 -55.9,-35.8 -108.7,-76.7 -157,-122.9 -185.7,-178.1 -298.3,-424.1 -324.2,-678.4 0,-0.2 -0.2,-0.4 -0.2,-0.6 -1.5,-5.4 -1.8,-10.8 -1.1,-16 -2.8,-31.7 -4.4,-63.6 -4.4,-95.4 0,-110.2 16.6,-220.4 51.2,-325.7 10.6,-32.3 22.7,-63.7 35.8,-94.5 -40.1,10.8 -86,8.3 -126.2,-4.1 -102.3,-31.6 -188,-113.2 -224.5,-213.9 -31,-85.5 -33.7,-224.8 29.4,-299 66.6,-78.4 221,4.4 278.5,58 69.4,64.5 111.3,154.2 133.2,246.4 1.7,7.3 3.2,14.7 4.6,22.2 6.5,-11.6 13.1,-23.2 19.7,-34.8 58,-101.3 118.9,-199.5 169.2,-300.8 64.6,-129.8 111.4,-276.4 111.3,-414.3 0,-65.1 -10.4,-128.2 -33.6,-187.8 -58.5,57 -147.1,78.1 -230.1,86.4 -160.4,15.9 -327.8,-1.8 -470,-77.6 -118,-62.9 -336.6,-265.3 -247.6,-415.7 84.5,-142.6 309.9,-215.5 464.6,-212.9 182.2,2.9 360.8,95.5 468.3,242.5 62.1,85 98.2,202.1 65.5,297.5 2.9,5.4 5.9,10.6 8.5,16.1 38,80.2 53.8,165.8 53.8,251.5 -0.1,155.7 -51.5,312.4 -119.6,449.6 -52.6,105.8 -114.3,205.3 -171.4,305 -57.1,99.6 -109.3,199.4 -144,305 -27.1,82.4 -42.1,168.4 -46.1,255.2 49.6,-81.9 117.3,-155.1 203.5,-196.4 73.3,-35.2 251.4,-69.5 293.1,28.3 39.5,92.8 -6,229.7 -62.9,304.6 -67.1,88.3 -176.9,142.6 -287.8,142.3 -44.1,0 -91.2,-11.7 -127.8,-35.4 39.3,202.3 138.1,393.5 286.3,535.3 185.2,177.7 444.2,274.9 701.6,274.8 116.9,0 233.3,-20 342.4,-61.1 63.2,-23.8 123.5,-54.7 180.3,-91.4 -12.1,1.4 -24.2,2.1 -36.1,2.1 -136,0.3 -270.7,-66.3 -353,-174.6 -69.9,-92 -125.7,-259.9 -77.2,-373.7 6.9,-16.3 17.1,-29.3 29.4,-40 78.7,-68.5 252.4,-32.2 330.2,5.2 64,30.7 119.5,75.9 167.1,128.9 33,36.8 62.3,77.2 87.4,119.7 29.4,49.7 54,107.1 50.8,163.4 21.7,-23.8 42.7,-48.2 62.2,-73.9 36.9,-48.7 69.1,-100.9 97,-155.2 57.5,-112.3 94.8,-234.5 105.6,-359.8 0.1,-0.8 0.4,-1.6 0.5,-2.4 25.7,-2 51.3,-3.9 77,-5.8 1.5,4.7 2.1,9.8 1.7,15.1 v 0 c -11.1,127.2 -46.6,250.9 -101.6,365.1"
         style="fill:#89d25e;fill-opacity:1;fill-rule:nonzero;stroke:none"
         id="path194" />
      <path
         d="m 15370.7,7210 c -47,5 -96.8,17.2 -131,48.3 -8.8,-126.3 -28.4,-251.8 -59.2,-375.2 150.3,1.2 300.6,4.6 450.8,10.3 7.9,0.3 15.8,0.7 23.7,1 64,2.5 127.9,5.5 191.9,8.9 12,0.7 24,1.2 36,1.9 72.1,4 144.2,8.4 216.3,13.5 1.1,118.5 14.4,236.5 38.9,352.3 -137.9,20.2 -271.7,36.8 -401.5,50.1 -29.8,-29.9 -63.5,-54.4 -89.1,-67.8 -84,-43.9 -182.5,-53.5 -276.8,-43.3"
         style="fill:#e9a12c;fill-opacity:1;fill-rule:nonzero;stroke:none"
         id="path196" />
      <path
         d="m 13924.1,6927.7 c -0.1,0.8 -0.4,1.6 -0.5,2.4 -10.8,125.3 -48.1,247.5 -105.6,359.8 -107.9,-16.7 -207.1,-35 -297.4,-54 -47.6,-53 -103.1,-98.2 -167.1,-128.9 -77.8,-37.4 -251.5,-73.7 -330.2,-5.2 -117.3,-40.1 -177.3,-68.5 -177.3,-68.5 289.3,-31.2 578,-60.7 866.5,-87.6 70.5,-6.6 141,-12.4 211.6,-18"
         style="fill:#e9a12c;fill-opacity:1;fill-rule:nonzero;stroke:none"
         id="path198" />
      <path
         d="m 16333.1,7103.4 c -50.1,5.3 -103.6,19.3 -134.3,59 -12.3,-78.7 -19,-158.1 -20,-237.7 39.1,3 78.2,6.1 117.3,9.3 44.6,3.8 89.2,7.5 133.7,11.7 288.4,26.9 577.1,56.4 866.4,87.6 -224.7,58.9 -441.5,108.5 -650.4,150 -20.4,-17.2 -40.9,-31.2 -57.7,-40 -77.4,-40.4 -168.2,-49.3 -255,-39.9"
         style="fill:#e9a12c;fill-opacity:1;fill-rule:nonzero;stroke:none"
         id="path200" />
      <path
         d="m 14002.8,6937 c 0.4,-5.3 -0.2,-10.4 -1.7,-15.1 16.9,-1.3 33.7,-2.7 50.5,-3.9 339.5,-23.6 679.5,-35.5 1019.5,-35.5 9.1,0 18.2,0.1 27.3,0.2 40.7,156.5 62.5,317.2 66.6,478.7 -499.1,18.3 -921.7,-11.3 -1263.8,-59.3 55,-114.2 90.5,-237.9 101.6,-365.1 v 0"
         style="fill:#e9a12c;fill-opacity:1;fill-rule:nonzero;stroke:none"
         id="path202" />
      <path
         d="m 16239.5,8361.8 c -2.5,21.8 13.1,41.5 34.9,44 21.7,2.6 41.5,-13 44,-34.8 16.3,-139.7 59.1,-277.2 138.1,-387.9 35.6,48.6 73.8,95.3 114.1,140.2 10,75.5 -0.1,153.8 -31.4,223.2 -44,97.5 -156,217.1 -270,227.9 -120.4,11.4 -182.6,-185 -187.2,-277.3 -5.5,-111.3 32.8,-221.3 90,-316.9 33.4,-55.7 78.8,-111.3 142.5,-124.7 19.1,-4 38.1,-3.6 56.5,0 12.2,19.9 24.5,39.8 37.4,59.2 -100.3,129.3 -150.3,289 -168.9,447.1"
         style="fill:#77cb44;fill-opacity:1;fill-rule:nonzero;stroke:none"
         id="path204" />
      <path
         d="m 13353.5,7107 c 64,30.7 119.5,75.9 167.1,128.9 33,36.8 62.3,77.2 87.4,119.7 29.4,49.7 54,107.1 50.8,163.4 -19.7,21.5 -40.3,42.2 -61.6,62 -66.9,-23 -141.1,-64.8 -206.4,-116.8 -67.9,-53.8 -126,-118.6 -158.4,-181.1 -10.1,-19.5 -34.1,-27.1 -53.6,-16.9 -19.4,10.1 -27,34.1 -16.9,53.5 39.9,76.4 105,147.4 179.4,206.7 58.8,46.6 123.3,85.7 187.3,113.1 -22.2,17.1 -45,33.3 -68.4,48.5 -12.1,1.4 -24.2,2.1 -36.1,2.1 -136,0.3 -270.7,-66.3 -353,-174.6 -69.9,-92 -125.7,-259.9 -77.2,-373.7 6.9,-16.3 17.1,-29.3 29.4,-40 78.7,-68.5 252.4,-32.2 330.2,5.2"
         style="fill:#77cb44;fill-opacity:1;fill-rule:nonzero;stroke:none"
         id="path206" />
      <path
         d="m 15245,7395.2 c 107.6,60.1 230.1,92.5 353.4,92.5 18.6,0 37.2,-0.7 55.8,-2.2 21.9,-1.8 38.2,-20.9 36.4,-42.8 -1.7,-21.8 -20.8,-38.1 -42.7,-36.4 -16.5,1.3 -33,2 -49.5,2 -125.8,0 -251.8,-38.2 -356.3,-107.9 -0.7,-14 -1.4,-28.1 -2.4,-42.1 34.2,-31.1 84,-43.3 131,-48.3 94.3,-10.2 192.8,-0.6 276.8,43.3 25.6,13.4 59.3,37.9 89.1,67.8 51.3,51.5 91.1,119.3 58.5,175.5 -49,84.2 -181.2,128.1 -272.2,127.4 -107.1,-0.9 -212.6,-54.4 -276.5,-140.4 -0.7,-0.9 -1.4,-1.9 -2,-2.8 0.6,-21.3 1,-42.5 1,-63.8 0,-7.3 -0.3,-14.5 -0.4,-21.8"
         style="fill:#77cb44;fill-opacity:1;fill-rule:nonzero;stroke:none"
         id="path208" />
      <path
         d="m 13212.6,10127.1 c -1.3,21.9 15.4,40.7 37.3,42.1 21.9,1.2 40.7,-15.4 42,-37.3 8.2,-137.1 35.4,-273 80.2,-402.8 28,-4.9 55.8,-10.2 83.6,-16.1 40.1,39.7 53.2,100.9 57.1,158.1 7.3,105.9 -7.9,215.9 -60.7,307.9 -43.8,76.4 -181.6,216.2 -278.8,154.5 -92.2,-58.5 -135.5,-208.5 -130.7,-310.3 4.8,-100.9 51.7,-198.5 125.4,-267.4 38.7,-3.4 77.3,-7.7 115.8,-12.9 -39.4,124.5 -63.4,253.8 -71.2,384.2"
         style="fill:#77cb44;fill-opacity:1;fill-rule:nonzero;stroke:none"
         id="path210" />
      <path
         d="m 12045.8,4824.3 c -5.8,-14.1 -16.7,-26.1 -30,-33.5 -8.1,-4.6 -17.1,-7.4 -26.4,-7.9 -47.4,-3 -82.7,53.2 -45.4,88.4 27.7,26.2 87.8,27.7 103.6,-13.3 4.2,-10.7 2.5,-23 -1.8,-33.7 z m -162.6,-3.1 c -3.2,-26.2 -32.8,-39.6 -58.5,-45.7 -90,-21.2 -186.9,-12.2 -271.5,25.3 -28.2,12.5 -55.3,28.3 -77,50.2 -17.7,17.9 -47.2,56.9 -40.9,84.5 9.1,39.7 64.3,37.2 92.7,26.8 19,-7 36.6,-17.3 55.3,-25.1 82.9,-34.6 182.1,-18.4 261.1,-61.2 20.9,-11.3 41.8,-31.1 38.8,-54.8 z m 307.6,217.3 c -71.2,-43.5 -153,-68.7 -233.7,-68.8 -42.8,0 -85.4,7.2 -125.3,23 -39.9,15.8 -77.1,40.4 -108.5,74.1 -14.9,16.1 -14,41.2 2.1,56.2 16,14.9 41.2,14 56.1,-2.1 23.2,-24.9 50,-42.6 79.6,-54.3 29.6,-11.8 62.1,-17.5 96,-17.5 63.9,0 132.7,20.6 192.1,57.1 59.6,36.5 109.4,88.4 137.8,148.5 4.6,9.8 8.8,19.7 12.6,29.7 -58.5,57 -147.1,78.1 -230.1,86.4 -160.4,15.9 -327.8,-1.8 -470,-77.6 -118,-62.9 -336.6,-265.3 -247.6,-415.7 84.5,-142.6 309.9,-215.5 464.6,-212.9 182.2,2.9 360.8,95.5 468.3,242.5 62.1,85 98.2,202.1 65.5,297.5 -36.8,-69 -93.6,-125.7 -159.5,-166.1"
         style="fill:#77cb44;fill-opacity:1;fill-rule:nonzero;stroke:none"
         id="path212" />
      <path
         d="m 18672.6,5640.5 c 25.8,89.9 106,157.2 128,248 9,37.2 9.3,103.9 56.1,116.5 43.5,11.7 55.1,-39.4 53.5,-70.8 -4.3,-86.3 -35.2,-171.1 -86.4,-240.6 -28.1,-38.1 -62.5,-71.8 -101.7,-98.4 -9.7,-6.5 -21.1,-13 -32.5,-10.3 -10.6,2.6 -18,12.8 -20.1,23.5 -2.1,10.6 0.1,21.7 3.1,32.1 z m 121.2,524.9 c 40.1,27.7 81.6,-17.1 90.5,-54.7 4.7,-19.7 -1.2,-42.8 -17.8,-54.3 -16.9,-11.8 -40.5,-9 -58.4,1 -18.9,10.7 -33.6,29.4 -37.1,50.8 -3.6,21.3 5,44.8 22.8,57.2 z M 18211,5646.3 c 69.4,-0.1 139.9,19.7 198.1,55.2 58.2,35.5 103.8,86.2 126.9,148.4 7.7,20.5 30.5,31 51.1,23.4 20.5,-7.7 31,-30.5 23.4,-51.1 -30.2,-81.2 -89,-145.2 -160.1,-188.5 -71.2,-43.4 -155.2,-66.8 -239.4,-66.8 -34.5,0 -69.2,3.9 -102.9,12.3 -41.8,10.3 -81.2,26.3 -118.2,46.4 33.9,-58.9 87.3,-106.7 148.3,-137.4 79.7,-40.1 171.3,-52.9 260.4,-48.1 225.6,12.2 447.4,146.5 538.7,353.2 29.1,66 45,138.8 38.7,210.6 -6.4,71.9 -36.2,142.6 -88.5,192.4 -36.1,34.5 -86.8,58.4 -137.7,55.4 -43.9,-2.5 -69.5,-33.5 -102.7,-59.2 -90.1,-70.1 -195.5,-120.5 -306.8,-146 -112.9,-25.9 -241.2,-31.5 -322.4,-114.4 -47.4,-48.5 -68.9,-118.1 -64.8,-186.1 51.4,-42.5 110.1,-74 174,-89.7 27.2,-6.7 55.4,-10 83.9,-10"
         style="fill:#77cb44;fill-opacity:1;fill-rule:nonzero;stroke:none"
         id="path214" />
      <path
         d="m 19205,8624.6 c -71.7,-69.2 -159.4,-121.9 -254.8,-150.8 -17.6,-5.3 -40.5,-8.1 -50.7,7.1 -10,14.9 0.5,34.8 12.1,48.5 68.1,80.2 178,118.3 239.7,203.6 19.8,27.5 33.8,58.9 53.4,86.6 19.5,27.7 46.7,52.7 80.2,58.1 15.7,2.6 32.9,0.3 45.4,-9.5 63.5,-49.5 -89.4,-209 -125.3,-243.6 z m -11.2,400.4 c 23.7,41.6 90.2,59.6 127.9,24.4 20.4,-19 20.7,-53.7 4.6,-76.4 -16.1,-22.8 -44.9,-34.1 -72.8,-34.4 -23.3,-0.2 -48.6,8.1 -60.9,28 -10.7,17.4 -8.9,40.7 1.2,58.4 z m -357.3,-592.1 c -14.6,-9.8 -35.9,-8.9 -48.7,3.2 -26,24.7 -6.9,82.8 31.4,79.6 39.9,-3.3 47.5,-62.3 17.3,-82.8 z m 158.4,749.2 c -116.3,-39.6 -233.6,-81.1 -335.7,-149.5 -102.1,-68.4 -188.9,-167.4 -217.7,-286.9 -7.6,-31.5 -10.3,-64.4 -8.4,-97 66.5,-13.1 132,-23.1 196.7,-22.9 5.1,0 10.3,0 15.4,0.2 65,1.5 132.5,16.5 189.4,44.8 57,28.4 102.8,69.3 129.2,123.1 9.7,19.7 33.5,27.8 53.2,18.1 19.6,-9.7 27.7,-33.5 18.1,-53.1 -35.7,-72.5 -96.2,-124.9 -165.1,-159.2 -69.2,-34.3 -147.2,-51.3 -222.9,-53.1 -5.8,-0.2 -11.5,-0.3 -17.3,-0.3 -62,0.1 -122.2,8.1 -181.3,18.7 19,-59.1 54.8,-111.8 106.8,-146 97.1,-63.8 224.7,-53.2 337.6,-25.8 132.2,32 262.2,85.1 363.8,175.6 101.6,90.4 171.9,222 166.8,357.9 -8.7,230.9 -234.3,321.5 -428.6,255.4"
         style="fill:#77cb44;fill-opacity:1;fill-rule:nonzero;stroke:none"
         id="path216" />
      <path
         d="m 13048.5,9528.4 c 5.7,-25.5 3.7,-52 0.6,-78 -11.2,-93.3 -38.4,-187.8 -98.2,-260.4 -16.6,-20.1 -45.1,-39.5 -66.6,-24.6 -18.1,12.5 -15.9,39.6 -10,60.8 16,57.3 44.7,110.3 62,167.2 10.8,35.4 15.8,72 12.2,109 -2.2,22.6 -13.9,54 -3,76.1 29.2,59.3 94.6,-11.6 103,-50.1 z M 12934,9685 c 0,0 -0.1,-0.1 -0.1,-0.2 -156.5,-147.1 -259.6,-351.2 -285.2,-564.5 -2.6,-21.7 -22.4,-37.3 -44.2,-34.6 -21.8,2.6 -37.3,22.4 -34.7,44.1 24.6,203.8 113.4,398.4 249.9,551.4 -75.4,-4.4 -150.6,-12.2 -225.2,-23.6 -30.3,-20.8 -58.7,-44.5 -84.3,-70.5 -80.3,-81.4 -138.6,-181.3 -194.9,-280.8 -94.2,-165.9 -50.6,-387.8 158.8,-435.9 123.2,-28.3 255.7,13.1 356,90.2 100.3,77.1 171.4,186.6 223.6,301.8 44.7,98.4 76.6,213.2 35.2,313 -18.9,45.4 -52.1,82.5 -92.8,109.6 -12.8,0.2 -25.6,0.6 -38.4,0.6 -7.9,0 -15.8,-0.5 -23.7,-0.6"
         style="fill:#77cb44;fill-opacity:1;fill-rule:nonzero;stroke:none"
         id="path218" />
      <path
         d="m 18021.7,7916.4 c -127.3,-34.8 -248.6,-92.3 -355.9,-169.2 -17.8,-12.8 -42.6,-8.7 -55.4,9.1 -12.8,17.9 -8.7,42.7 9.1,55.4 117.9,84.6 251.3,147.3 391.5,184.3 v 0 c 0.4,0 0.7,0 1.1,0.1 -3.2,19.6 -6.8,39 -11.3,58.3 -16.9,12.8 -35.8,23.1 -55.9,29.4 -64.1,19.9 -134.8,6.9 -195.4,-21.9 -60.7,-28.8 -113,-72.2 -164.1,-115.7 -85.3,-72.6 -105.9,-203.8 0,-272.4 62.3,-40.4 143.7,-44.3 214.5,-21.9 70.9,22.3 132.1,68.5 184.1,121.5 14.5,14.8 28.4,31 40.8,48.1 0,4.3 0.3,8.7 0.3,13.1 0,27.4 -1.3,54.7 -3.4,81.8"
         style="fill:#77cb44;fill-opacity:1;fill-rule:nonzero;stroke:none"
         id="path220" />
      <path
         d="m 12092.8,8181.6 c -18.2,12.3 -22.9,37.1 -10.5,55.2 12.3,18.1 37,22.8 55.2,10.4 153.1,-104.4 275.7,-251.7 351.7,-420.6 27.4,11.9 55.3,22.6 83.5,32.3 40.1,76.7 29.1,177.9 -24.3,258.4 -50.9,76.8 -103.5,153.9 -172.7,214.9 -69.1,61 -157.6,105 -249.8,103 -92.2,-2 -185.9,-57.7 -215.2,-145.1 -27.7,-82.6 4.5,-173.2 45.9,-249.9 48.5,-89.7 112,-173.9 197,-230.2 54.7,-36.3 119.2,-59.6 184.3,-64 25.9,16.6 52.6,31.9 79.8,46.2 -69.9,156.2 -183.6,293.1 -324.9,389.4"
         style="fill:#77cb44;fill-opacity:1;fill-rule:nonzero;stroke:none"
         id="path222" />
      <path
         d="m 18647.1,8546.6 c 75.7,1.8 153.7,18.8 222.9,53.1 68.9,34.3 129.4,86.7 165.1,159.2 9.6,19.6 1.5,43.4 -18.1,53.1 -19.7,9.7 -43.5,1.6 -53.2,-18.1 -26.4,-53.8 -72.2,-94.7 -129.2,-123.1 -56.9,-28.3 -124.4,-43.3 -189.4,-44.8 -5.1,-0.2 -10.3,-0.2 -15.4,-0.2 -64.7,-0.2 -130.2,9.8 -196.7,22.9 -64.1,12.5 -129.3,28 -195.9,40.3 -104.2,19 -209.8,28.2 -315.5,28.2 -7.6,0 -15.1,-0.4 -22.7,-0.5 -67.7,-0.8 -135.2,-5.4 -202.4,-13.7 -0.5,5.7 -0.8,11.4 -0.8,17 0,47.5 17.3,96 45.5,144.3 28,48.2 66.5,95.3 105,139.2 40.2,46.1 82.9,97 116.4,153.4 33.4,56.2 58,118.8 58.1,187.2 0,15 -1.2,30.1 -3.7,45.4 -3.6,21.6 -24,36.2 -45.7,32.7 -21.6,-3.6 -36.3,-24.1 -32.7,-45.7 1.8,-10.9 2.7,-21.7 2.7,-32.4 0,-48.6 -17.9,-97.7 -47,-146.7 -28.9,-48.8 -68.6,-96.6 -107.9,-141.6 -39.6,-45.3 -81.3,-95.8 -113.8,-151.5 -32.5,-55.7 -56.2,-117.4 -56.3,-184.3 0,-7 0.5,-14.1 1,-21.2 0.2,-2.4 0.3,-4.8 0.6,-7.3 -323.2,-54.2 -632.2,-193.4 -882.3,-406.5 -58.7,-50.1 -113.5,-104.5 -165.1,-161.7 -40.3,-44.9 -78.5,-91.6 -114.1,-140.2 -79,110.7 -121.8,248.2 -138.1,387.9 -2.5,21.8 -22.3,37.4 -44,34.8 -21.8,-2.5 -37.4,-22.2 -34.9,-44 18.6,-158.1 68.6,-317.8 168.9,-447.1 -12.9,-19.4 -25.2,-39.3 -37.4,-59.2 -110,-179.8 -189.3,-378.3 -232.9,-584.5 -24.5,-115.8 -37.8,-233.8 -38.9,-352.3 26.5,1.9 53,4 79.6,6 1,79.6 7.7,159 20,237.7 1.9,12.2 3.9,24.3 6,36.4 1.9,0.5 3.8,0.9 5.6,1.7 v 0 c 99.4,40.6 204.6,67.1 311.4,78.3 21.8,2.3 37.7,21.8 35.4,43.6 -2.3,21.8 -21.8,37.7 -43.6,35.4 -98.9,-10.4 -196.4,-33 -289.8,-67.1 7.9,34 17,67.6 27,101.1 87.1,292.7 249.6,563.6 470.8,773.6 16.7,15.8 34,31.1 51.3,46.3 0.8,-0.1 1.6,-0.4 2.4,-0.5 v 0 c 89.1,-7.8 173.5,-54.2 235.2,-122.3 61.8,-68 100.1,-156.7 99.9,-246 0,-4 0,-8 -0.2,-12.1 -0.7,-21.9 16.4,-40.3 38.3,-41 22,-0.8 40.3,16.4 41.1,38.3 0.2,4.9 0.3,9.8 0.3,14.8 -0.1,112 -47,218.3 -120.6,299.4 -57.8,63.7 -132.9,112.1 -216.8,135 18.3,14 36.7,27.7 55.5,40.9 159.9,112.7 339.7,197 528.2,250.8 2.9,-0.6 5.9,-1.1 9,-1.1 v 0 c 124.6,-0.3 241.5,-53.2 337.4,-138.3 95.8,-85 169.4,-202 205.7,-325.2 4.8,-16.5 8.7,-33.3 12.5,-50 4.5,-19.3 8.1,-38.7 11.3,-58.3 -0.4,-0.1 -0.7,-0.1 -1.1,-0.1 v 0 c -140.2,-37 -273.6,-99.7 -391.5,-184.3 -17.8,-12.7 -21.9,-37.5 -9.1,-55.4 12.8,-17.8 37.6,-21.9 55.4,-9.1 107.3,76.9 228.6,134.4 355.9,169.2 2.1,-27.1 3.4,-54.4 3.4,-81.8 0,-4.4 -0.3,-8.8 -0.3,-13.1 -1.9,-165.3 -39,-334.7 -89.6,-496.6 -39.4,-126.2 -86.9,-251.2 -131.7,-378.1 -0.2,-0.5 -0.6,-0.9 -0.8,-1.4 -0.7,-1.8 -1.2,-3.7 -1.7,-5.5 -45.3,-128.9 -87.6,-259.8 -115.3,-395.9 -18.1,-89 -29.6,-181.1 -29.6,-273.3 0,-99.1 13.3,-198.4 46.3,-293.7 32.1,-92.5 84.6,-179.3 153.5,-249.7 39.5,-40.2 84.5,-74.8 134,-101.7 37,-20.1 76.4,-36.1 118.2,-46.4 33.7,-8.4 68.4,-12.3 102.9,-12.3 84.2,0 168.2,23.4 239.4,66.8 71.1,43.3 129.9,107.3 160.1,188.5 7.6,20.6 -2.9,43.4 -23.4,51.1 -20.6,7.6 -43.4,-2.9 -51.1,-23.4 -23.1,-62.2 -68.7,-112.9 -126.9,-148.4 -58.2,-35.5 -128.7,-55.3 -198.1,-55.2 -28.5,0 -56.7,3.3 -83.9,10 -63.9,15.7 -122.6,47.2 -174,89.7 -14,11.6 -27.6,23.8 -40.4,36.9 -60.1,61.3 -106.9,138.5 -135.2,220.2 -29.6,85.2 -42,175.6 -42,267.6 0,85.6 10.7,172.5 28,257.5 16.4,81 39,161 64.2,240.5 11.3,35.8 23.1,71.4 35.4,107.1 160.4,-73 308.1,-174.2 433.5,-298.1 15.6,-15.4 40.7,-15.3 56.1,0.3 15.5,15.6 15.3,40.8 -0.3,56.2 -133.8,132.2 -291.5,239.7 -463,316.8 8.3,23.4 16.6,46.8 25.1,70.3 33.2,92.4 66.8,185.3 96.5,279.9 53.3,170.7 93.5,352.1 93.6,533.4 0,98.2 -11.9,196.4 -40.2,292.2 -40.7,137.9 -121.5,266.6 -229,362.2 -60.1,53.4 -129,96.6 -203.9,124.3 95.9,16 193.1,24.5 290.2,24.5 101,0 201.9,-8.9 301.2,-27 73.6,-13.2 148.6,-31.9 225.6,-45.8 59.1,-10.6 119.3,-18.6 181.3,-18.7 5.8,0 11.5,0.1 17.3,0.3"
         style="fill:#bde375;fill-opacity:1;fill-rule:nonzero;stroke:none"
         id="path224" />
      <path
         d="m 15107.8,6882.7 c 24.2,0.1 48.5,0.3 72.7,0.4 30.8,123.4 50.4,248.9 59.2,375.2 1,14 1.7,28.1 2.4,42.1 104.5,69.7 230.5,107.9 356.3,107.9 16.5,0 33,-0.7 49.5,-2 21.9,-1.7 41,14.6 42.7,36.4 1.8,21.9 -14.5,41 -36.4,42.8 -18.6,1.5 -37.2,2.2 -55.8,2.2 -123.3,0 -245.8,-32.4 -353.4,-92.5 0.1,7.3 0.4,14.5 0.4,21.8 0,21.3 -0.4,42.5 -1,63.8 -10.6,382.9 -115.2,763.9 -298.4,1101.4 -134.5,247.8 -311.5,472.1 -524.7,656 -30.6,26.4 -62,51.9 -94.1,76.6 84.6,185.5 242.5,337.8 431.2,414.9 20.3,8.3 30.1,31.5 21.8,51.8 -8.3,20.3 -31.5,30 -51.8,21.7 -202.8,-83.1 -371.4,-242.9 -466.3,-440.2 -10.9,7.7 -21.9,15.3 -33,22.9 -35,23.9 -70.7,47 -107.2,68.8 -206.9,123.4 -432.6,208.7 -666.2,258.3 -27.8,5.9 -55.6,11.2 -83.6,16.1 -44.8,129.8 -72,265.7 -80.2,402.8 -1.3,21.9 -20.1,38.5 -42,37.3 -21.9,-1.4 -38.6,-20.2 -37.3,-42.1 7.8,-130.4 31.8,-259.7 71.2,-384.2 -38.5,5.2 -77.1,9.5 -115.8,12.9 -69.9,6 -140.1,9.2 -210.3,9.2 -446.8,0 -894.9,-122 -1274.4,-355.7 -158,-97.4 -304.4,-213.6 -433.4,-349.3 -15.1,-15.9 -14.5,-41 1.4,-56.2 15.9,-15.1 41.1,-14.4 56.2,1.5 124.2,130.8 265.7,243.1 418.6,337.2 263.1,161.7 561,268.1 868.4,315.1 74.6,11.4 149.8,19.2 225.2,23.6 -136.5,-153 -225.3,-347.6 -249.9,-551.4 -2.6,-21.7 12.9,-41.5 34.7,-44.1 21.8,-2.7 41.6,12.9 44.2,34.6 25.6,213.3 128.7,417.4 285.2,564.5 0,0.1 0.1,0.2 0.1,0.2 7.9,0.1 15.8,0.6 23.7,0.6 12.8,0 25.6,-0.4 38.4,-0.6 380.8,-6.1 758.2,-103.5 1085.1,-298.5 336.6,-200.7 607.9,-497.5 795,-842.2 71.5,-131.7 130.5,-270.3 176.3,-413 16.7,-51.8 31.4,-104.2 44.5,-157 -195,92.4 -410.2,141.1 -625.9,141.1 -42.4,0 -84.7,-1.9 -127,-5.7 -21.8,-1.9 -38,-21.2 -36,-43 1.9,-21.9 21.2,-38 43.1,-36.1 39.8,3.6 79.9,5.3 119.9,5.3 224.8,0.1 449.9,-55.6 648.3,-161.2 5.9,-29.1 11.4,-58.3 16.2,-87.5 20,-122.6 30.4,-246.5 30.4,-370.2 0,-18.6 -0.6,-37.1 -1,-55.6 -4.1,-161.5 -25.9,-322.2 -66.6,-478.7 3.1,0 6.2,0 9.4,0"
         style="fill:#bde375;fill-opacity:1;fill-rule:nonzero;stroke:none"
         id="path226" />
      <path
         d="m 13341.3,7526.4 c -74.4,-59.3 -139.5,-130.3 -179.4,-206.7 -10.1,-19.4 -2.5,-43.4 16.9,-53.5 19.5,-10.2 43.5,-2.6 53.6,16.9 32.4,62.5 90.5,127.3 158.4,181.1 65.3,52 139.5,93.8 206.4,116.8 21.3,-19.8 41.9,-40.5 61.6,-62 21.7,-23.8 42.7,-48.2 62.2,-73.9 36.9,-48.7 69.1,-100.9 97,-155.2 57.5,-112.3 94.8,-234.5 105.6,-359.8 0.1,-0.8 0.4,-1.6 0.5,-2.4 25.7,-2 51.3,-3.9 77,-5.8 1.5,4.7 2.1,9.8 1.7,15.1 v 0 c -11.1,127.2 -46.6,250.9 -101.6,365.1 -32.5,67.4 -71.8,131.4 -116.9,191 -44.6,58.8 -95.1,113.2 -150.3,162.2 -10.8,9.6 -22,18.5 -33.2,27.6 41.5,92.2 62.9,192.9 62.9,293.8 0,48.2 -4.8,96.4 -14.6,143.7 -4.5,21.5 -25.5,35.3 -47,30.8 -21.5,-4.4 -35.3,-25.5 -30.8,-46.9 8.7,-41.9 13,-84.7 13,-127.6 0,-83.6 -16.5,-167.4 -48.4,-244.5 -25.9,18.1 -52.3,35.3 -79.7,51 -47.4,27.3 -96.8,51.2 -148.3,70.6 -118.6,44.6 -244.5,66.1 -370.4,66.1 -123.7,-0.1 -247.6,-20.9 -364.8,-61 -28.2,-9.7 -56.1,-20.4 -83.5,-32.3 -76,168.9 -198.6,316.2 -351.7,420.6 -18.2,12.4 -42.9,7.7 -55.2,-10.4 -12.4,-18.1 -7.7,-42.9 10.5,-55.2 141.3,-96.3 255,-233.2 324.9,-389.4 -27.2,-14.3 -53.9,-29.6 -79.8,-46.2 -55.9,-35.8 -108.7,-76.7 -157,-122.9 -185.7,-178.1 -298.3,-424.1 -324.2,-678.4 0,-0.2 -0.2,-0.4 -0.2,-0.6 -1.5,-5.4 -1.8,-10.8 -1.1,-16 -2.8,-31.7 -4.4,-63.6 -4.4,-95.4 0,-110.2 16.6,-220.4 51.2,-325.7 10.6,-32.3 22.7,-63.7 35.8,-94.5 5.9,-13.9 11.9,-27.6 18.2,-41.2 -115.5,-44.1 -208.3,-139.8 -247.1,-257.4 -6.8,-20.8 4.5,-43.2 25.4,-50.1 20.8,-6.8 43.2,4.5 50.1,25.4 31.3,96.1 111.1,177.1 206.5,210.7 13.5,-26.3 27.6,-52.1 41.9,-77.8 6.5,-11.6 13.1,-23.2 19.7,-34.8 58,-101.3 118.9,-199.5 169.2,-300.8 64.6,-129.8 111.4,-276.4 111.3,-414.3 0,-65.1 -10.4,-128.2 -33.6,-187.8 -3.8,-10 -8,-19.9 -12.6,-29.7 -28.4,-60.1 -78.2,-112 -137.8,-148.5 -59.4,-36.5 -128.2,-57.1 -192.1,-57.1 -33.9,0 -66.4,5.7 -96,17.5 -29.6,11.7 -56.4,29.4 -79.6,54.3 -14.9,16.1 -40.1,17 -56.1,2.1 -16.1,-15 -17,-40.1 -2.1,-56.2 31.4,-33.7 68.6,-58.3 108.5,-74.1 39.9,-15.8 82.5,-23 125.3,-23 80.7,0.1 162.5,25.3 233.7,68.8 65.9,40.4 122.7,97.1 159.5,166.1 2.9,5.4 5.9,10.6 8.5,16.1 38,80.2 53.8,165.8 53.8,251.5 -0.1,155.7 -51.5,312.4 -119.6,449.6 -52.6,105.8 -114.3,205.3 -171.4,305 -57.1,99.6 -109.3,199.4 -144,305 -27.1,82.4 -42.1,168.4 -46.1,255.2 -0.7,15.2 -1.1,30.4 -1.1,45.7 0,15.7 0.4,31.5 1.1,47.2 120.4,-42.6 230.2,-115.5 315.5,-210.4 14.6,-16.3 39.7,-17.6 56.1,-3 16.3,14.7 17.6,39.8 2.9,56.1 -98.9,110 -226.8,192.4 -367.3,238.3 2.9,23.3 6.4,46.5 10.9,69.5 39.3,202.3 138.1,393.5 286.3,535.3 185.2,177.7 444.2,274.9 701.6,274.8 116.9,0 233.3,-20 342.4,-61.1 63.2,-23.8 123.5,-54.7 180.3,-91.4 23.4,-15.2 46.2,-31.4 68.4,-48.5 -64,-27.4 -128.5,-66.5 -187.3,-113.1"
         style="fill:#bde375;fill-opacity:1;fill-rule:nonzero;stroke:none"
         id="path228" />
      <path
         d="m 16308.9,2473.8 c -3.3,-5.4 -6.7,-10.8 -10.4,-15.9 3.7,5.1 7.1,10.5 10.4,15.9"
         style="fill:#fbd33e;fill-opacity:1;fill-rule:nonzero;stroke:none"
         id="path230" />
      <path
         d="m 16342.9,2589.7 c -0.9,-38.9 -11.3,-76 -29.4,-108.6 18.1,32.6 28.5,69.7 29.4,108.6"
         style="fill:#fbd33e;fill-opacity:1;fill-rule:nonzero;stroke:none"
         id="path232" />
      <path
         d="m 17296.2,7033.3 c -289.3,-31.2 -578,-60.7 -866.4,-87.6 288.4,26.9 577.1,56.4 866.4,87.6"
         style="fill:#fbd33e;fill-opacity:1;fill-rule:nonzero;stroke:none"
         id="path234" />
      <path
         d="m 15107.8,6882.7 c 174.5,0.5 349,4.1 523.5,10.7 -150.2,-5.7 -300.5,-9.1 -450.8,-10.3 -24.2,-0.1 -48.5,-0.3 -72.7,-0.4"
         style="fill:#fbd33e;fill-opacity:1;fill-rule:nonzero;stroke:none"
         id="path236" />
      <path
         d="m 16296.1,6934 c -39.1,-3.2 -78.2,-6.3 -117.3,-9.3 -26.6,-2 -53.1,-4.1 -79.6,-6 -72.1,-5.1 -144.2,-9.5 -216.3,-13.5 137.8,7.7 275.5,17.3 413.2,28.8"
         style="fill:#fbd33e;fill-opacity:1;fill-rule:nonzero;stroke:none"
         id="path238" />
      <path
         d="m 15846.9,6903.3 c -64,-3.4 -127.9,-6.4 -191.9,-8.9 64,2.6 127.9,5.5 191.9,8.9"
         style="fill:#fbd33e;fill-opacity:1;fill-rule:nonzero;stroke:none"
         id="path240" />
      <path
         d="m 13799.9,2610.5 c 2.4,36.6 4.6,72.9 6.4,129.3 -1.8,-56.4 -4,-92.7 -6.4,-129.3 -5,-73.5 24.8,-142.6 76.6,-189.4 -51.8,46.8 -81.6,115.9 -76.6,189.4"
         style="fill:#fccc2b;fill-opacity:1;fill-rule:nonzero;stroke:none"
         id="path242" />
      <path
         d="m 16477.2,3635 c -297.4,-227.4 -616.2,-432.8 -967.8,-561.2 -436.1,-159.2 -907.2,-194.6 -1371.5,-201.6 -122.5,-1.9 -245,-1.8 -367.5,0.1 v 0 c 12.5,-23 24.9,-46 37.6,-68.7 0,0 1273.2,-618.7 2526.3,0 23.2,41.7 46.1,84 68.8,126.6 6.8,12.7 13.5,25.5 20.2,38.3 16.2,30.8 32.3,61.7 48.2,92.9 7.2,14.1 14.3,28.2 21.4,42.3 16.2,32.2 32.2,64.7 48.1,97.3 5.8,12 11.7,23.9 17.4,36 43.8,91.2 86.3,184 127.3,278.4 2.8,6.4 5.5,12.9 8.3,19.4 17.5,40.7 34.8,81.7 51.8,122.9 4.3,10.4 8.5,20.9 12.8,31.4 16,39.3 31.7,78.8 47.2,118.5 3.6,9.3 7.2,18.6 10.8,27.9 18.6,48.2 36.8,96.7 54.5,145.6 -0.1,-0.1 -0.2,-0.2 -0.3,-0.3 -119.1,-127.4 -254.8,-239.6 -393.6,-345.8"
         style="fill:#fccc2b;fill-opacity:1;fill-rule:nonzero;stroke:none"
         id="path244" />
      <path
         d="m 13808,2803.6 c -0.6,-24 -1.1,-45 -1.7,-63.8 -1.8,-56.4 -4,-92.7 -6.4,-129.3 -5,-73.5 24.8,-142.6 76.6,-189.4 7.4,-6.7 15.2,-12.9 23.5,-18.6 22,-15.3 46.9,-27 74.1,-34.1 347.4,-90.6 724.1,-131.1 1097,-126.6 373,-4.5 749.6,36 1097.1,126.6 20.3,5.3 39.5,13.2 57,23.3 17.6,10.1 33.6,22.3 47.8,36.2 9.4,9.3 17.8,19.4 25.5,30 3.7,5.1 7.1,10.5 10.4,15.9 1.5,2.4 3.2,4.8 4.6,7.3 18.1,32.6 28.5,69.7 29.4,108.6 0.1,6.9 0,13.8 -0.5,20.8 -2.5,36.6 -4.6,72.9 -6.4,129.3 -0.6,18.8 -1.2,39.8 -1.7,63.8 -1253.1,-618.7 -2526.3,0 -2526.3,0"
         style="fill:#f8a323;fill-opacity:1;fill-rule:nonzero;stroke:none"
         id="path246" />
      <path
         d="m 13978.4,4981.9 c -213.8,0 -387.2,-89.6 -387.2,-200.2 0,-110.6 173.4,-200.3 387.2,-200.3 213.9,0 387.2,89.7 387.2,200.3 0,110.6 -173.3,200.2 -387.2,200.2"
         style="fill:#f4725c;fill-opacity:1;fill-rule:nonzero;stroke:none"
         id="path248" />
      <path
         d="m 16136.4,4981.9 c -213.8,0 -387.2,-89.6 -387.2,-200.2 0,-110.6 173.4,-200.3 387.2,-200.3 213.9,0 387.2,89.7 387.2,200.3 0,110.6 -173.3,200.2 -387.2,200.2"
         style="fill:#f4725c;fill-opacity:1;fill-rule:nonzero;stroke:none"
         id="path250" />
      <path
         d="m 15353.8,4818.2 c -12.9,16.4 -28,31.1 -44.8,43.5 27.5,23 54,50 73.4,85.1 15,27.4 23.2,58.6 23.3,90.3 -0.1,19.1 -3.1,38.5 -10.2,57 -7,18.5 -18.2,36.1 -33.9,50.6 -14.6,13.5 -31.6,22.9 -49,28.8 -17.5,5.8 -35.5,8.2 -53,8.2 -32.5,0 -64,-8 -91.9,-20.3 -96.6,-43.2 -167.2,-134.4 -184.8,-238.7 -3.6,-21.7 11,-42.1 32.6,-45.7 21.7,-3.6 42.1,11 45.7,32.7 v 0 c 12.5,76.7 67.5,147.8 138.7,179.1 18.9,8.4 40.7,13.6 59.7,13.5 10.3,0 19.7,-1.4 27.7,-4.1 8,-2.7 14.6,-6.5 20.4,-11.9 6,-5.5 10.4,-12.2 13.6,-20.5 3.2,-8.3 4.9,-18.1 4.9,-28.7 0.1,-17.5 -4.9,-36.8 -13.4,-52.2 -20,-37.1 -59.4,-67.7 -103.2,-99.2 -13,-9.4 -19.1,-25.7 -15.4,-41.3 3.8,-15.7 16.6,-27.5 32.4,-30 10,-1.6 21,-6.2 32.3,-13.9 16.9,-11.6 33.7,-30.4 46.5,-51.7 12.9,-21.2 21.8,-44.9 25,-64.4 0.9,-6.1 1.4,-12.2 1.4,-18.4 0.1,-22.6 -6.6,-46.1 -18.6,-66.3 -11.9,-20.3 -29,-37.1 -48.7,-47.4 -17,-8.9 -36.8,-13.5 -57,-13.5 -33.2,-0.1 -66.6,12.5 -89.1,34.4 -15.8,15.2 -41,14.8 -56.2,-1 -15.2,-15.8 -14.8,-40.9 1,-56.1 39.3,-37.7 91.8,-56.6 144.3,-56.7 32.1,0 64.5,7.2 93.9,22.6 34.1,17.9 61.3,45.3 80.2,77.3 18.9,32 29.6,68.8 29.7,106.7 0,10.4 -0.9,20.8 -2.6,31.2 -7,42.1 -26.6,84.8 -54.9,121"
         style="fill:#360d13;fill-opacity:1;fill-rule:nonzero;stroke:none"
         id="path252" />
      <path
         d="m 14382.6,5454.7 c -35.5,8.6 -71.3,-13.1 -80,-48.6 -11.5,-47.4 -42.5,-90.2 -85.6,-121.4 -42.8,-31.2 -96.9,-49.5 -148.5,-49.4 -3.4,0 -6.9,0.1 -10.4,0.3 -54.5,2.5 -108.4,22.8 -155.4,56.5 -46.9,33.5 -86.2,80.3 -111,132.2 -15.8,33 -55.3,46.9 -88.3,31.1 -32.9,-15.8 -46.9,-55.3 -31.1,-88.3 v 0 c 34.9,-72.6 88.1,-135.8 153.3,-182.6 65.2,-46.7 143,-77.2 226.4,-81.2 5.5,-0.2 11,-0.4 16.5,-0.4 82,0.2 161.2,27.6 226.2,74.6 64.8,47 116.3,114.8 136.5,197.2 8.7,35.5 -13.1,71.3 -48.6,80"
         style="fill:#360d13;fill-opacity:1;fill-rule:nonzero;stroke:none"
         id="path254" />
      <path
         d="m 15889.5,5184.5 c 65.2,-46.7 143.1,-77.3 226.4,-81.2 5.5,-0.2 11.1,-0.4 16.6,-0.4 81.9,0.2 161.2,27.6 226.2,74.6 64.8,47 116.2,114.8 136.4,197.2 8.7,35.5 -13.1,71.3 -48.6,80 -35.5,8.6 -71.3,-13.1 -80,-48.6 -11.5,-47.4 -42.5,-90.2 -85.5,-121.4 -42.9,-31.2 -97,-49.5 -148.5,-49.4 -3.5,0 -7,0.1 -10.4,0.3 -54.6,2.5 -108.5,22.8 -155.4,56.5 -46.9,33.5 -86.3,80.3 -111,132.2 -15.8,33 -55.3,46.9 -88.3,31.1 -33,-15.8 -46.9,-55.3 -31.1,-88.3 v 0 c 34.8,-72.6 88,-135.8 153.2,-182.6"
         style="fill:#360d13;fill-opacity:1;fill-rule:nonzero;stroke:none"
         id="path256" />
      <path
         d="m 14865.6,7785.6 c -42.8,-0.2 -85.4,7.5 -126.5,19.1 -58.2,16.6 -113.8,41.3 -169.9,64.2 -24.8,10.1 -50.8,20.1 -77.6,18.2 -26.7,-1.8 -54.3,-19.1 -59.1,-45.4 -3.5,-19.4 6,-39.4 20.2,-53.1 14.2,-13.6 32.6,-22 51,-29.3 115.5,-46.3 245.1,-61.9 366,-32.3 14.8,3.6 30,8.1 41.5,18.1 11,9.5 21.1,28.1 7.5,39.2 -11.7,9.5 -39.7,1.4 -53.1,1.3"
         style="fill:#9dd869;fill-opacity:1;fill-rule:nonzero;stroke:none"
         id="path258" />
      <path
         d="m 14366.9,7976.3 c -44.6,5.3 -94,-31.3 -74,-80.2 10.2,-25.1 39.2,-40.5 65.9,-36.3 26.7,4.1 49.2,26.7 54.5,53.2 2.8,13.6 1.3,28.3 -6.1,40 -8.6,13.5 -24.3,21.5 -40.3,23.3"
         style="fill:#9dd869;fill-opacity:1;fill-rule:nonzero;stroke:none"
         id="path260" />
      <path
         d="m 11844.4,4876 c -79,42.8 -178.2,26.6 -261.1,61.2 -18.7,7.8 -36.3,18.1 -55.3,25.1 -28.4,10.4 -83.6,12.9 -92.7,-26.8 -6.3,-27.6 23.2,-66.6 40.9,-84.5 21.7,-21.9 48.8,-37.7 77,-50.2 84.6,-37.5 181.5,-46.5 271.5,-25.3 25.7,6.1 55.3,19.5 58.5,45.7 3,23.7 -17.9,43.5 -38.8,54.8"
         style="fill:#86d053;fill-opacity:1;fill-rule:nonzero;stroke:none"
         id="path262" />
      <path
         d="m 11944,4871.3 c -37.3,-35.2 -2,-91.4 45.4,-88.4 9.3,0.5 18.3,3.3 26.4,7.9 13.3,7.4 24.2,19.4 30,33.5 4.3,10.7 6,23 1.8,33.7 -15.8,41 -75.9,39.5 -103.6,13.3"
         style="fill:#86d053;fill-opacity:1;fill-rule:nonzero;stroke:none"
         id="path264" />
      <path
         d="m 11197.5,9295.3 c -35.6,7 -69.8,-41.1 -90.8,-63.4 -58.8,-62.2 -109,-133.4 -143.3,-212.1 -18.8,-43.2 -32.7,-88.6 -40.4,-135.2 -3.8,-22.7 -6,-46.3 0.1,-68.5 6,-22.3 22,-43 44.2,-49.1 32.1,-8.7 65.3,16 79.6,46.1 14.3,30.1 15.2,64.5 19.8,97.5 9.2,66.2 34.5,130 73.2,184.4 23.4,32.8 51.6,62.5 69.1,98.8 12.6,26 32.2,93 -11.5,101.5"
         style="fill:#9dd869;fill-opacity:1;fill-rule:nonzero;stroke:none"
         id="path266" />
      <path
         d="m 11088.5,8767.3 c -23,-4.7 -39.5,-37.9 -38.6,-59.3 0.9,-21.9 15.8,-42.7 36.4,-50.3 20.6,-7.6 45.6,-1.3 60.1,15.2 14.4,16.6 17,42.5 5.9,61.4 -10.7,18.5 -41.5,37.5 -63.8,33"
         style="fill:#9dd869;fill-opacity:1;fill-rule:nonzero;stroke:none"
         id="path268" />
      <path
         d="m 12948.5,9502.4 c 3.6,-37 -1.4,-73.6 -12.2,-109 -17.3,-56.9 -46,-109.9 -62,-167.2 -5.9,-21.2 -8.1,-48.3 10,-60.8 21.5,-14.9 50,4.5 66.6,24.6 59.8,72.6 87,167.1 98.2,260.4 3.1,26 5.1,52.5 -0.6,78 -8.4,38.5 -73.8,109.4 -103,50.1 -10.9,-22.1 0.8,-53.5 3,-76.1"
         style="fill:#86d053;fill-opacity:1;fill-rule:nonzero;stroke:none"
         id="path270" />
      <path
         d="m 19253.5,8938.6 c 27.9,0.3 56.7,11.6 72.8,34.4 16.1,22.7 15.8,57.4 -4.6,76.4 -37.7,35.2 -104.2,17.2 -127.9,-24.4 -10.1,-17.7 -11.9,-41 -1.2,-58.4 12.3,-19.9 37.6,-28.2 60.9,-28"
         style="fill:#86d053;fill-opacity:1;fill-rule:nonzero;stroke:none"
         id="path272" />
      <path
         d="m 19284.9,8877.7 c -33.5,-5.4 -60.7,-30.4 -80.2,-58.1 -19.6,-27.7 -33.6,-59.1 -53.4,-86.6 -61.7,-85.3 -171.6,-123.4 -239.7,-203.6 -11.6,-13.7 -22.1,-33.6 -12.1,-48.5 10.2,-15.2 33.1,-12.4 50.7,-7.1 95.4,28.9 183.1,81.6 254.8,150.8 35.9,34.6 188.8,194.1 125.3,243.6 -12.5,9.8 -29.7,12.1 -45.4,9.5"
         style="fill:#86d053;fill-opacity:1;fill-rule:nonzero;stroke:none"
         id="path274" />
      <path
         d="m 18819.2,8515.7 c -38.3,3.2 -57.4,-54.9 -31.4,-79.6 12.8,-12.1 34.1,-13 48.7,-3.2 30.2,20.5 22.6,79.5 -17.3,82.8"
         style="fill:#86d053;fill-opacity:1;fill-rule:nonzero;stroke:none"
         id="path276" />
      <path
         d="m 17621.6,9189.7 c 20.1,-12 46.2,-2.7 65.7,10.3 106.8,70.5 124.5,221.2 208.8,317.4 20.6,23.5 76.5,86 22.5,103.3 -33.3,10.6 -84.1,-32.5 -105.7,-52.2 -86.3,-78.7 -166.8,-182.8 -204.3,-294.3 -9.9,-29.3 -13.5,-68.5 13,-84.5"
         style="fill:#9dd869;fill-opacity:1;fill-rule:nonzero;stroke:none"
         id="path278" />
      <path
         d="m 17624.4,9090.7 c -4.7,16.1 -19.5,28.7 -36.1,30.8 -34.8,4.4 -60.4,-34.2 -63.4,-64.5 -1.5,-15.3 2.5,-31.4 12.6,-42.9 10.2,-11.5 26.8,-17.4 41.5,-13.2 16.3,4.8 26.9,20.2 34.7,35.2 8.8,16.9 16,36.3 10.7,54.6"
         style="fill:#9dd869;fill-opacity:1;fill-rule:nonzero;stroke:none"
         id="path280" />
      <path
         d="m 18808.1,6057.4 c 17.9,-10 41.5,-12.8 58.4,-1 16.6,11.5 22.5,34.6 17.8,54.3 -8.9,37.6 -50.4,82.4 -90.5,54.7 -17.8,-12.4 -26.4,-35.9 -22.8,-57.2 3.5,-21.4 18.2,-40.1 37.1,-50.8"
         style="fill:#86d053;fill-opacity:1;fill-rule:nonzero;stroke:none"
         id="path282" />
      <path
         d="m 18689.6,5584.9 c 11.4,-2.7 22.8,3.8 32.5,10.3 39.2,26.6 73.6,60.3 101.7,98.4 51.2,69.5 82.1,154.3 86.4,240.6 1.6,31.4 -10,82.5 -53.5,70.8 -46.8,-12.6 -47.1,-79.3 -56.1,-116.5 -22,-90.8 -102.2,-158.1 -128,-248 -3,-10.4 -5.2,-21.5 -3.1,-32.1 2.1,-10.7 9.5,-20.9 20.1,-23.5"
         style="fill:#86d053;fill-opacity:1;fill-rule:nonzero;stroke:none"
         id="path284" />
      <path
         d="m 16296.1,6934 c -137.7,-11.5 -275.4,-21.1 -413.2,-28.8 -12,-0.7 -24,-1.2 -36,-1.9 -64,-3.4 -127.9,-6.3 -191.9,-8.9 -7.9,-0.3 -15.8,-0.7 -23.7,-1 -174.5,-6.6 -349,-10.2 -523.5,-10.7 -3.2,0 -6.3,0 -9.4,0 -9.1,-0.1 -18.2,-0.2 -27.3,-0.2 -340,0 -680,11.9 -1019.5,35.5 -16.8,1.2 -33.6,2.6 -50.5,3.9 -25.7,1.9 -51.3,3.8 -77,5.8 -70.6,5.6 -141.1,11.4 -211.6,18 -288.5,26.9 -577.2,56.4 -866.5,87.6 -3.8,-40.5 -7,-81 -9.9,-121.5 -2.5,-36.4 -4.8,-72.8 -6.8,-109.2 -0.1,-1.2 -0.2,-2.5 -0.2,-3.7 v -0.1 c 19.6,-17.7 42.4,-32.3 66.3,-42.9 62.7,-27.6 132.5,-32.6 200.8,-37.1 862.5,-56.6 1727.7,-73.7 2591.8,-51.1 250.5,6.5 502.5,16.3 750.8,-17.6 248.4,-33.8 495.9,-114.2 691.9,-270.4 71.1,-56.6 134.4,-124.3 186.4,-199.4 v 0 c 1.6,39 2.8,78.2 3.8,117.3 0.4,16.6 0.6,33.1 0.8,49.7 0.5,26.9 0.8,53.9 0.9,81 0.1,16.3 0.1,32.7 0.1,49.1 -0.1,34.4 -0.6,68.8 -1.2,103.3 -0.2,7.9 -0.2,15.8 -0.4,23.8 -1,42 -2.5,84 -4.3,126.1 -0.6,13 -1.3,26.1 -2,39.1 -1.6,31.8 -3.4,63.6 -5.5,95.4 -0.8,12.8 -1.6,25.7 -2.5,38.5 -3.1,43.2 -6.5,86.4 -10.6,129.7 -289.3,-31.2 -578,-60.7 -866.4,-87.6 -44.5,-4.2 -89.1,-7.9 -133.7,-11.7"
         style="fill:#fccc2b;fill-opacity:1;fill-rule:nonzero;stroke:none"
         id="path286" />
    </g>
  </g>
</svg>
