<svg width="1144" height="1081" viewBox="0 0 1144 1081" fill="none" xmlns="http://www.w3.org/2000/svg">
<g clip-path="url(#clip0_2_2)">
<path d="M356.763 415.054C361.163 410.147 365.07 404.76 368.416 399.094C372.336 392.467 375.616 384.814 375.19 377.307C378.083 380.48 380.883 383.734 383.483 387.16C388.403 393.654 392.696 400.614 396.416 407.854C382.03 410.08 368.803 412.52 356.763 415.054ZM1143.82 189.614C1142.66 158.827 1112.58 146.747 1086.67 155.56C1071.16 160.84 1055.52 166.374 1041.91 175.494C1028.3 184.614 1016.72 197.814 1012.88 213.747C1011.87 217.947 1011.51 222.334 1011.76 226.68C1003.22 225.014 994.523 222.947 985.643 221.307C971.75 218.774 957.67 217.547 943.576 217.547C942.563 217.547 941.563 217.6 940.55 217.614C947.297 213.494 953.403 207.894 958.763 202.08C971.056 188.76 981.55 173.24 986.123 155.694C990.71 138.147 988.763 118.347 978.15 103.654C960.11 78.6935 928.377 85.3203 911.723 107.027C901.737 120.014 891.79 133.307 885.523 148.44C879.27 163.587 876.963 180.987 882.603 196.374C886.257 206.334 893.737 215.08 903.003 220C903.03 220.32 903.043 220.64 903.083 220.974C859.99 228.2 818.79 246.76 785.443 275.174C777.616 281.854 770.31 289.107 763.43 296.734C764.763 286.667 763.416 276.227 759.243 266.974C753.376 253.974 738.443 238.027 723.243 236.587C707.19 235.067 698.896 261.254 698.283 273.56C697.55 288.4 702.656 303.067 710.283 315.814C714.737 323.24 720.79 330.654 729.283 332.44C731.83 332.974 734.363 332.92 736.817 332.44C722.15 356.414 711.576 382.88 705.763 410.374C687.376 407.68 669.536 405.467 652.23 403.694C659.07 396.827 664.376 387.787 660.03 380.294C653.496 369.067 635.87 363.214 623.737 363.307C609.457 363.427 595.39 370.56 586.87 382.027C586.777 382.147 586.683 382.28 586.603 382.4C585.19 331.347 571.243 280.547 546.816 235.547C528.883 202.507 505.283 172.6 476.856 148.08C478.656 148.387 480.483 148.56 482.296 148.587C495.603 148.76 508.323 142.294 518.23 133.4C528.136 124.507 535.63 113.307 542.896 102.147C555.016 83.5202 551.537 57.4269 527.537 50.3469C513.403 46.1736 497.71 50.0402 485.51 58.2802C473.296 66.5336 464.243 78.7602 457.35 91.7736C451.47 102.907 446.936 116.014 451.043 127.907C451.096 128.08 451.176 128.227 451.23 128.387C446.563 125.2 441.803 122.12 436.937 119.214C409.35 102.76 379.256 91.3869 348.11 84.7736C353.456 79.4802 355.203 71.3203 355.723 63.6936C356.696 49.5736 354.67 34.9069 347.63 22.6402C341.79 12.4536 323.416 -6.18642 310.456 2.04024C298.163 9.84024 292.39 29.8402 293.03 43.4136C293.67 56.8669 299.923 69.8803 309.75 79.0669C300.43 78.2669 291.07 77.8402 281.71 77.8402C222.136 77.8402 162.39 94.1069 111.79 125.267C103.536 115.974 90.3631 110.894 77.7231 111.507C61.3631 112.307 46.2164 121.2 34.7231 132.867C23.2164 144.534 14.8564 158.867 6.76305 173.12C-6.73028 196.92 -0.476845 228.734 29.5365 235.627C47.2165 239.68 66.2031 233.747 80.5765 222.707C94.9631 211.654 105.163 195.947 112.643 179.427C119.043 165.32 123.616 148.867 117.683 134.56C117.63 134.427 117.563 134.307 117.496 134.174C152.576 112.614 192.296 98.427 233.283 92.1603C229.243 94.9336 225.456 98.0936 222.043 101.56C211.336 112.414 203.563 125.734 196.056 139C183.496 161.12 189.31 190.707 217.23 197.12C233.656 200.894 251.323 195.374 264.696 185.094C278.07 174.814 287.55 160.214 294.51 144.854C300.47 131.734 304.723 116.427 299.203 103.12C296.683 97.0669 292.256 92.1202 286.83 88.5069C337.603 89.3202 387.923 102.307 431.51 128.307C476.39 155.067 512.563 194.64 537.51 240.6C547.043 258.16 554.91 276.64 561.016 295.667C553.656 286.654 544.536 279.04 536.096 274.387C514.816 262.654 488.016 261.52 465.83 271.4C450.336 278.307 436.07 293.16 438.23 309.987C439.83 322.427 449.803 332.027 460.003 339.307C477.497 351.787 498.056 360.84 519.523 361.494C533.95 361.934 562.11 356.16 572.096 341.547C574.763 357.894 576.15 374.414 576.15 390.907C576.15 393.387 576.07 395.854 576.016 398.32C509.47 395.88 453.123 399.827 407.51 406.227C403.176 397.24 397.936 388.707 391.923 380.76C385.976 372.92 379.243 365.667 371.883 359.134C379.083 357.814 385.763 352.28 389.923 345.894C397.99 333.507 399.883 317.294 394.87 303.387C390.617 291.574 378.616 276.56 365.363 274.254C351.39 271.814 342.323 294.227 340.937 304.974C339.297 317.654 342.59 330.56 348.176 342.08C341.856 338.44 335.27 335.254 328.403 332.667C312.59 326.72 295.803 323.854 279.016 323.854C262.523 323.867 246.003 326.64 230.376 331.987C235.723 321.76 234.256 308.267 227.136 297.534C220.35 287.294 213.336 277.014 204.11 268.88C194.896 260.747 183.096 254.88 170.803 255.147C158.51 255.414 146.016 262.84 142.11 274.494C138.416 285.507 142.71 297.587 148.23 307.814C154.696 319.774 163.163 331 174.496 338.507C181.79 343.347 190.39 346.454 199.07 347.04C191.616 351.814 184.576 357.267 178.136 363.427C153.376 387.174 138.363 419.974 134.91 453.88C134.91 453.907 134.883 453.934 134.883 453.96C134.683 454.68 134.643 455.4 134.736 456.094C134.363 460.32 134.15 464.574 134.15 468.814C134.15 483.507 136.363 498.2 140.976 512.24C142.39 516.547 144.003 520.734 145.75 524.84C140.403 523.4 134.283 523.734 128.923 525.387C115.283 529.6 103.856 540.48 98.9898 553.907C94.8564 565.307 94.4965 583.88 102.91 593.774C111.79 604.227 132.376 593.187 140.043 586.04C149.296 577.44 154.883 565.48 157.803 553.187C158.03 552.214 158.23 551.227 158.416 550.227C159.283 551.774 160.163 553.32 161.043 554.867C168.776 568.374 176.896 581.467 183.603 594.974C192.216 612.28 198.456 631.827 198.443 650.214C198.443 658.894 197.056 667.307 193.963 675.254C186.163 667.654 174.35 664.84 163.283 663.734C141.896 661.614 119.576 663.974 100.616 674.08C84.8831 682.467 55.7365 709.454 67.6032 729.507C78.8698 748.52 108.923 758.24 129.55 757.894C153.843 757.507 177.656 745.16 191.99 725.56C200.27 714.227 205.083 698.614 200.723 685.894C201.11 685.174 201.51 684.48 201.856 683.747C206.923 673.054 209.03 661.64 209.03 650.214C209.016 629.454 202.163 608.56 193.083 590.267C186.07 576.16 177.843 562.894 170.23 549.6C162.616 536.32 155.656 523.014 151.03 508.934C147.416 497.947 145.416 486.48 144.883 474.907C151.496 485.827 160.523 495.587 172.016 501.094C181.79 505.787 205.536 510.36 211.096 497.32C216.363 484.947 210.296 466.694 202.71 456.707C193.763 444.934 179.123 437.694 164.336 437.734C158.456 437.734 152.176 439.294 147.296 442.454C152.536 415.48 165.71 389.987 185.47 371.08C210.163 347.387 244.696 334.427 279.016 334.44C294.603 334.44 310.123 337.107 324.67 342.587C333.097 345.76 341.136 349.88 348.71 354.774C347.096 354.587 345.483 354.494 343.896 354.494C325.763 354.454 307.803 363.334 296.83 377.774C287.51 390.04 280.07 412.427 286.536 427.6C287.456 429.774 288.816 431.507 290.456 432.934C274.816 438.28 266.816 442.067 266.816 442.067C266.31 447.467 265.883 452.867 265.496 458.267C265.163 463.12 264.856 467.974 264.59 472.827C264.576 472.987 264.563 473.16 264.563 473.32V473.334C254.15 663.96 309.976 849.68 390.07 996.867C391.737 999.934 393.39 1003 395.083 1006.03C395.003 1009.23 394.936 1012.03 394.856 1014.53C394.616 1022.05 394.323 1026.89 394.003 1031.77C393.417 1040.35 396.39 1048.47 401.763 1054.55C402.536 1055.41 403.35 1056.24 404.216 1057.03C405.203 1057.92 406.243 1058.75 407.35 1059.51C410.283 1061.55 413.603 1063.11 417.23 1064.05C463.55 1076.13 513.776 1081.53 563.496 1080.93C613.23 1081.53 663.443 1076.13 709.777 1064.05C712.483 1063.35 715.043 1062.29 717.377 1060.95C719.723 1059.6 721.857 1057.97 723.75 1056.12C725.003 1054.88 726.123 1053.53 727.15 1052.12C727.643 1051.44 728.097 1050.72 728.537 1050C728.737 1049.68 728.963 1049.36 729.15 1049.03C731.563 1044.68 732.95 1039.73 733.07 1034.55C733.083 1033.63 733.07 1032.71 733.003 1031.77C732.67 1026.89 732.39 1022.05 732.15 1014.53C732.07 1012.03 731.99 1009.23 731.923 1006.03C735.016 1000.47 738.07 994.827 741.096 989.147C742.003 987.454 742.897 985.747 743.79 984.04C745.95 979.934 748.097 975.814 750.217 971.654C751.177 969.774 752.123 967.894 753.07 966.014C755.23 961.72 757.363 957.387 759.483 953.04C760.257 951.44 761.043 949.854 761.803 948.24C767.643 936.08 773.31 923.707 778.776 911.12C779.15 910.267 779.51 909.4 779.883 908.534C782.217 903.107 784.523 897.64 786.79 892.147C787.363 890.76 787.923 889.36 788.496 887.96C790.63 882.72 792.723 877.454 794.79 872.16C795.27 870.92 795.75 869.68 796.23 868.44C798.71 862.014 801.136 855.547 803.496 849.027C803.483 849.04 803.47 849.054 803.457 849.067C836.563 757.787 858.656 658.254 862.963 555.8C863.176 550.6 863.337 545.374 863.47 540.16C863.523 537.947 863.55 535.747 863.576 533.534C863.643 529.947 863.683 526.347 863.696 522.734C863.71 520.56 863.71 518.374 863.71 516.187C863.696 511.6 863.63 507.014 863.55 502.414C863.523 501.36 863.523 500.307 863.496 499.24C863.363 493.64 863.163 488.04 862.923 482.427C862.843 480.694 862.75 478.947 862.657 477.214C862.443 472.974 862.203 468.734 861.923 464.494C861.817 462.787 861.71 461.067 861.59 459.36C861.177 453.6 860.723 447.84 860.176 442.067C830.216 434.214 801.31 427.6 773.457 422.067C781.123 415.574 788.576 405.574 783.896 397.507C777.87 387.16 761.63 381.76 750.457 381.854C739.457 381.947 728.643 386.6 720.79 394.267C732.403 355.24 754.07 319.12 783.563 291.12C781.203 299.96 782.83 309.907 785.523 318.88C789.51 332.16 795.656 345.107 805.43 354.947C815.19 364.787 828.99 371.214 842.803 369.947C866.257 367.774 874.23 344.294 866.43 324.88C861.75 313.254 856.87 301.534 849.337 291.52C841.817 281.507 831.243 273.214 818.91 270.947C815.47 270.32 811.91 270.294 808.417 270.747C829.737 255.72 853.71 244.48 878.843 237.307C879.23 237.387 879.63 237.454 880.043 237.454C896.656 237.494 912.243 244.547 925.03 255.894C937.803 267.227 947.617 282.827 952.457 299.254C953.097 301.454 953.617 303.694 954.123 305.92C951.87 304.214 949.35 302.84 946.67 302C938.123 299.347 928.697 301.08 920.617 304.92C912.523 308.76 905.55 314.547 898.737 320.347C887.363 330.027 884.617 347.52 898.737 356.667C907.043 362.054 917.897 362.574 927.337 359.587C936.79 356.614 944.95 350.454 951.883 343.387C953.817 341.414 955.67 339.254 957.323 336.974C957.07 359.014 952.123 381.6 945.376 403.187C940.123 420.014 933.79 436.68 927.817 453.6C927.79 453.667 927.736 453.72 927.71 453.787C927.616 454.027 927.55 454.28 927.483 454.52C921.443 471.707 915.803 489.16 912.11 507.307C909.696 519.174 908.163 531.454 908.163 543.747C908.163 556.96 909.937 570.2 914.337 582.907C918.617 595.24 925.617 606.814 934.803 616.2C940.07 621.56 946.07 626.174 952.67 629.76C957.19 637.614 964.31 643.987 972.443 648.08C983.07 653.427 995.283 655.134 1007.16 654.494C1037.24 652.867 1066.82 634.96 1078.99 607.4C1082.87 598.6 1084.99 588.894 1084.15 579.32C1083.3 569.734 1079.32 560.307 1072.35 553.667C1067.54 549.067 1060.78 545.88 1053.99 546.28C1048.14 546.614 1044.72 550.747 1040.3 554.174C1028.28 563.52 1014.23 570.24 999.39 573.64C984.337 577.094 967.23 577.84 956.403 588.894C950.083 595.36 947.216 604.64 947.763 613.707C945.896 612.16 944.083 610.534 942.376 608.787C934.363 600.614 928.123 590.32 924.35 579.427C920.403 568.067 918.75 556.014 918.75 543.747C918.75 532.334 920.177 520.747 922.483 509.414C924.67 498.614 927.683 487.947 931.043 477.347C933.723 484.707 938.937 491.4 944.523 497.107C954.23 507.014 965.67 515.627 978.896 519.8C992.123 523.974 1007.32 523.267 1018.96 515.72C1038.72 502.894 1034.88 478.4 1018.95 464.84C1009.42 456.72 999.643 448.6 988.323 443.24C977.003 437.867 963.79 435.44 951.817 439.147C948.563 440.16 945.443 441.72 942.617 443.667C947.043 431.347 951.523 418.96 955.483 406.347C962.59 383.587 967.95 359.4 967.963 335.227C967.963 322.134 966.377 309.04 962.603 296.267C957.177 277.88 946.403 260.72 932.07 247.974C924.057 240.854 914.87 235.094 904.883 231.4C917.67 229.267 930.63 228.134 943.576 228.134C957.043 228.134 970.497 229.32 983.737 231.734C993.55 233.494 1003.55 235.987 1013.82 237.84C1016.35 245.72 1021.12 252.747 1028.06 257.307C1041 265.814 1058.02 264.4 1073.07 260.747C1090.7 256.48 1108.03 249.4 1121.58 237.334C1135.12 225.28 1144.5 207.734 1143.82 189.614Z" fill="#FBD33E"/>
<path d="M293.816 109.387C294.576 112.787 294.31 116.32 293.896 119.787C292.403 132.227 288.776 144.827 280.803 154.507C278.59 157.187 274.79 159.774 271.923 157.787C269.51 156.12 269.803 152.507 270.59 149.68C272.723 142.04 276.55 134.974 278.856 127.387C280.296 122.667 280.963 117.787 280.483 112.854C280.19 109.84 278.63 105.654 280.083 102.707C283.976 94.8003 292.696 104.254 293.816 109.387ZM623.736 363.307C609.456 363.427 595.39 370.56 586.87 382.027C586.776 382.147 586.683 382.28 586.603 382.4C585.19 331.347 571.243 280.547 546.816 235.547C528.883 202.507 505.283 172.6 476.856 148.08C478.656 148.387 480.483 148.56 482.296 148.587C495.603 148.76 508.323 142.294 518.23 133.4C528.136 124.507 535.63 113.307 542.896 102.147C555.016 83.5203 551.536 57.427 527.536 50.347C513.403 46.1736 497.71 50.0403 485.51 58.2803C473.296 66.5336 464.243 78.7603 457.35 91.7736C451.47 102.907 446.936 116.014 451.043 127.907C451.096 128.08 451.176 128.227 451.23 128.387C446.563 125.2 441.803 122.12 436.936 119.214C409.35 102.76 379.256 91.387 348.11 84.7736C353.456 79.4803 355.203 71.3204 355.723 63.6937C356.696 49.5737 354.67 34.907 347.63 22.6403C341.79 12.4536 323.416 -6.18636 310.456 2.04031C298.163 9.84031 292.39 29.8403 293.03 43.4136C293.67 56.867 299.923 69.8803 309.75 79.067C300.43 78.267 291.07 77.8403 281.71 77.8403C222.136 77.8403 162.39 94.107 111.79 125.267C103.536 115.974 90.3631 110.894 77.7231 111.507C61.3631 112.307 46.2164 121.2 34.7231 132.867C23.2164 144.534 14.8564 158.867 6.76305 173.12C-6.73028 196.92 -0.476845 228.734 29.5365 235.627C47.2165 239.68 66.2031 233.747 80.5765 222.707C94.9631 211.654 105.163 195.947 112.643 179.427C119.043 165.32 123.616 148.867 117.683 134.56C117.63 134.427 117.563 134.307 117.496 134.174C152.576 112.614 192.296 98.427 233.283 92.1604C229.243 94.9337 225.456 98.0937 222.043 101.56C211.336 112.414 203.563 125.734 196.056 139C183.496 161.12 189.31 190.707 217.23 197.12C233.656 200.894 251.323 195.374 264.696 185.094C278.07 174.814 287.55 160.214 294.51 144.854C300.47 131.734 304.723 116.427 299.203 103.12C296.683 97.0669 292.256 92.1203 286.83 88.507C337.603 89.3203 387.923 102.307 431.51 128.307C476.39 155.067 512.563 194.64 537.51 240.6C547.043 258.16 554.91 276.64 561.016 295.667C553.656 286.654 544.536 279.04 536.096 274.387C514.816 262.654 488.016 261.52 465.83 271.4C450.336 278.307 436.07 293.16 438.23 309.987C439.83 322.427 449.803 332.027 460.003 339.307C477.496 351.787 498.056 360.84 519.523 361.494C533.95 361.934 562.11 356.16 572.096 341.547C574.763 357.894 576.15 374.414 576.15 390.907C576.15 393.387 576.07 395.854 576.016 398.32C575.47 419.854 572.563 441.28 567.136 462.147C567.55 462.147 567.963 462.147 568.39 462.147C571.616 462.134 574.856 462.107 578.083 462.094C582.19 445.64 584.803 428.907 585.976 412.067C590.536 416.214 597.176 417.84 603.443 418.507C616.016 419.867 629.15 418.587 640.35 412.734C643.763 410.947 648.256 407.68 652.23 403.694C659.07 396.827 664.376 387.787 660.03 380.294C653.496 369.067 635.87 363.214 623.736 363.307Z" fill="#89D25E"/>
<path d="M1114.68 229.894C1105.12 239.12 1093.43 246.147 1080.71 250C1078.36 250.707 1075.31 251.08 1073.95 249.054C1072.62 247.067 1074.02 244.414 1075.56 242.587C1084.64 231.894 1099.3 226.814 1107.52 215.44C1110.16 211.774 1112.03 207.587 1114.64 203.894C1117.24 200.2 1120.87 196.867 1125.34 196.147C1127.43 195.8 1129.72 196.107 1131.39 197.414C1139.86 204.014 1119.47 225.28 1114.68 229.894ZM1113.19 176.507C1116.35 170.96 1125.22 168.56 1130.24 173.254C1132.96 175.787 1133 180.414 1130.86 183.44C1128.71 186.48 1124.87 187.987 1121.15 188.027C1118.04 188.054 1114.67 186.947 1113.03 184.294C1111.6 181.974 1111.84 178.867 1113.19 176.507ZM1065.55 255.454C1063.6 256.76 1060.76 256.64 1059.06 255.027C1055.59 251.734 1058.14 243.987 1063.24 244.414C1068.56 244.854 1069.58 252.72 1065.55 255.454ZM1043.7 627.774C1047.14 615.787 1057.83 606.814 1060.76 594.707C1061.96 589.747 1062 580.854 1068.24 579.174C1074.04 577.614 1075.59 584.427 1075.38 588.614C1074.8 600.12 1070.68 611.427 1063.86 620.694C1060.11 625.774 1055.52 630.267 1050.3 633.814C1049 634.68 1047.48 635.547 1045.96 635.187C1044.55 634.84 1043.56 633.48 1043.28 632.054C1043 630.64 1043.3 629.16 1043.7 627.774ZM1059.86 557.787C1065.2 554.094 1070.74 560.067 1071.92 565.08C1072.55 567.707 1071.76 570.787 1069.55 572.32C1067.3 573.894 1064.15 573.52 1061.76 572.187C1059.24 570.76 1057.28 568.267 1056.82 565.414C1056.34 562.574 1057.48 559.44 1059.86 557.787ZM1143.82 189.614C1142.66 158.827 1112.58 146.747 1086.67 155.56C1071.16 160.84 1055.52 166.374 1041.91 175.494C1028.3 184.614 1016.72 197.814 1012.88 213.747C1011.87 217.947 1011.51 222.334 1011.76 226.68C1003.22 225.014 994.523 222.947 985.643 221.307C971.75 218.774 957.67 217.547 943.576 217.547C942.563 217.547 941.563 217.6 940.55 217.614C947.296 213.494 953.403 207.894 958.763 202.08C971.056 188.76 981.55 173.24 986.123 155.694C990.71 138.147 988.763 118.347 978.15 103.654C960.11 78.6936 928.376 85.3203 911.723 107.027C901.736 120.014 891.79 133.307 885.523 148.44C879.27 163.587 876.963 180.987 882.603 196.374C886.256 206.334 893.736 215.08 903.003 220C903.03 220.32 903.043 220.64 903.083 220.974C859.99 228.2 818.79 246.76 785.443 275.174C777.616 281.854 770.31 289.107 763.43 296.734C764.763 286.667 763.416 276.227 759.243 266.974C753.376 253.974 738.443 238.027 723.243 236.587C707.19 235.067 698.896 261.254 698.283 273.56C697.55 288.4 702.656 303.067 710.283 315.814C714.736 323.24 720.79 330.654 729.283 332.44C731.83 332.974 734.363 332.92 736.816 332.44C722.15 356.414 711.576 382.88 705.763 410.374C702.496 425.814 700.723 441.547 700.576 457.347C704.11 457.094 707.643 456.814 711.19 456.547C711.323 445.934 712.216 435.347 713.856 424.854C717.95 430.147 725.083 432.014 731.763 432.72C743.336 433.974 755.443 432.787 765.763 427.4C768.003 426.227 770.736 424.36 773.456 422.067C781.123 415.574 788.576 405.574 783.896 397.507C777.87 387.16 761.63 381.76 750.456 381.854C739.456 381.947 728.643 386.6 720.79 394.267C732.403 355.24 754.07 319.12 783.563 291.12C781.203 299.96 782.83 309.907 785.523 318.88C789.51 332.16 795.656 345.107 805.43 354.947C815.19 364.787 828.99 371.214 842.803 369.947C866.256 367.774 874.23 344.294 866.43 324.88C861.75 313.254 856.87 301.534 849.336 291.52C841.816 281.507 831.243 273.214 818.91 270.947C815.47 270.32 811.91 270.294 808.416 270.747C829.736 255.72 853.71 244.48 878.843 237.307C879.23 237.387 879.63 237.454 880.043 237.454C896.656 237.494 912.243 244.547 925.03 255.894C937.803 267.227 947.616 282.827 952.456 299.254C953.096 301.454 953.616 303.694 954.123 305.92C951.87 304.214 949.35 302.84 946.67 302C938.123 299.347 928.696 301.08 920.616 304.92C912.523 308.76 905.55 314.547 898.736 320.347C887.363 330.027 884.616 347.52 898.736 356.667C907.043 362.054 917.896 362.574 927.336 359.587C936.79 356.614 944.95 350.454 951.883 343.387C953.816 341.414 955.67 339.254 957.323 336.974C957.07 359.014 952.123 381.6 945.376 403.187C940.123 420.014 933.79 436.68 927.816 453.6C927.79 453.667 927.736 453.72 927.71 453.787C927.616 454.027 927.55 454.28 927.483 454.52C921.443 471.707 915.803 489.16 912.11 507.307C909.696 519.174 908.163 531.454 908.163 543.747C908.163 556.96 909.936 570.2 914.336 582.907C918.616 595.24 925.616 606.814 934.803 616.2C940.07 621.56 946.07 626.174 952.67 629.76C957.19 637.614 964.31 643.987 972.443 648.08C983.07 653.427 995.283 655.134 1007.16 654.494C1037.24 652.867 1066.82 634.96 1078.99 607.4C1082.87 598.6 1084.99 588.894 1084.15 579.32C1083.3 569.734 1079.32 560.307 1072.35 553.667C1067.54 549.067 1060.78 545.88 1053.99 546.28C1048.14 546.614 1044.72 550.747 1040.3 554.174C1028.28 563.52 1014.23 570.24 999.39 573.64C984.336 577.094 967.23 577.84 956.403 588.894C950.083 595.36 947.216 604.64 947.763 613.707C945.896 612.16 944.083 610.534 942.376 608.787C934.363 600.614 928.123 590.32 924.35 579.427C920.403 568.067 918.75 556.014 918.75 543.747C918.75 532.334 920.176 520.747 922.483 509.414C924.67 498.614 927.683 487.947 931.043 477.347C933.723 484.707 938.936 491.4 944.523 497.107C954.23 507.014 965.67 515.627 978.896 519.8C992.123 523.974 1007.32 523.267 1018.96 515.72C1038.72 502.894 1034.88 478.4 1018.95 464.84C1009.42 456.72 999.643 448.6 988.323 443.24C977.003 437.867 963.79 435.44 951.816 439.147C948.563 440.16 945.443 441.72 942.616 443.667C947.043 431.347 951.523 418.96 955.483 406.347C962.59 383.587 967.95 359.4 967.963 335.227C967.963 322.134 966.376 309.04 962.603 296.267C957.176 277.88 946.403 260.72 932.07 247.974C924.056 240.854 914.87 235.094 904.883 231.4C917.67 229.267 930.63 228.134 943.576 228.134C957.043 228.134 970.496 229.32 983.736 231.734C993.55 233.494 1003.55 235.987 1013.82 237.84C1016.35 245.72 1021.12 252.747 1028.06 257.307C1041 265.814 1058.02 264.4 1073.07 260.747C1090.7 256.48 1108.03 249.4 1121.58 237.334C1135.12 225.28 1144.5 207.734 1143.82 189.614Z" fill="#89D25E"/>
<path d="M160.123 736.6C159.35 738.48 157.896 740.08 156.123 741.067C155.043 741.68 153.843 742.054 152.603 742.12C146.283 742.52 141.576 735.027 146.55 730.334C150.243 726.84 158.256 726.64 160.363 732.107C160.923 733.534 160.696 735.174 160.123 736.6ZM138.443 737.014C138.016 740.507 134.07 742.294 130.643 743.107C118.643 745.934 105.723 744.734 94.4431 739.734C90.6831 738.067 87.0698 735.96 84.1765 733.04C81.8165 730.654 77.8831 725.454 78.7231 721.774C79.9364 716.48 87.2964 716.814 91.0831 718.2C93.6164 719.134 95.9631 720.507 98.4564 721.547C109.51 726.16 122.736 724 133.27 729.707C136.056 731.214 138.843 733.854 138.443 737.014ZM407.51 406.227C403.176 397.24 397.936 388.707 391.923 380.76C385.976 372.92 379.243 365.667 371.883 359.134C379.083 357.814 385.763 352.28 389.923 345.894C397.99 333.507 399.883 317.294 394.87 303.387C390.616 291.574 378.616 276.56 365.363 274.254C351.39 271.814 342.323 294.227 340.936 304.974C339.296 317.654 342.59 330.56 348.176 342.08C341.856 338.44 335.27 335.254 328.403 332.667C312.59 326.72 295.803 323.854 279.016 323.854C262.523 323.867 246.003 326.64 230.376 331.987C235.723 321.76 234.256 308.267 227.136 297.534C220.35 287.294 213.336 277.014 204.11 268.88C194.896 260.747 183.096 254.88 170.803 255.147C158.51 255.414 146.016 262.84 142.11 274.494C138.416 285.507 142.71 297.587 148.23 307.814C154.696 319.774 163.163 331 174.496 338.507C181.79 343.347 190.39 346.454 199.07 347.04C191.616 351.814 184.576 357.267 178.136 363.427C153.376 387.174 138.363 419.974 134.91 453.88C134.91 453.907 134.883 453.934 134.883 453.96C134.683 454.68 134.643 455.4 134.736 456.094C134.363 460.32 134.15 464.574 134.15 468.814C134.15 483.507 136.363 498.2 140.976 512.24C142.39 516.547 144.003 520.734 145.75 524.84C140.403 523.4 134.283 523.734 128.923 525.387C115.283 529.6 103.856 540.48 98.9897 553.907C94.8564 565.307 94.4965 583.88 102.91 593.774C111.79 604.227 132.376 593.187 140.043 586.04C149.296 577.44 154.883 565.48 157.803 553.187C158.03 552.214 158.23 551.227 158.416 550.227C159.283 551.774 160.163 553.32 161.043 554.867C168.776 568.374 176.896 581.467 183.603 594.974C192.216 612.28 198.456 631.827 198.443 650.214C198.443 658.894 197.056 667.307 193.963 675.254C186.163 667.654 174.35 664.84 163.283 663.734C141.896 661.614 119.576 663.974 100.616 674.08C84.8831 682.467 55.7365 709.454 67.6032 729.507C78.8698 748.52 108.923 758.24 129.55 757.894C153.843 757.507 177.656 745.16 191.99 725.56C200.27 714.227 205.083 698.614 200.723 685.894C201.11 685.174 201.51 684.48 201.856 683.747C206.923 673.054 209.03 661.64 209.03 650.214C209.016 629.454 202.163 608.56 193.083 590.267C186.07 576.16 177.843 562.894 170.23 549.6C162.616 536.32 155.656 523.014 151.03 508.934C147.416 497.947 145.416 486.48 144.883 474.907C151.496 485.827 160.523 495.587 172.016 501.094C181.79 505.787 205.536 510.36 211.096 497.32C216.363 484.947 210.296 466.694 202.71 456.707C193.763 444.934 179.123 437.694 164.336 437.734C158.456 437.734 152.176 439.294 147.296 442.454C152.536 415.48 165.71 389.987 185.47 371.08C210.163 347.387 244.696 334.427 279.016 334.44C294.603 334.44 310.123 337.107 324.67 342.587C333.096 345.76 341.136 349.88 348.71 354.774C347.096 354.587 345.483 354.494 343.896 354.494C325.763 354.454 307.803 363.334 296.83 377.774C287.51 390.04 280.07 412.427 286.536 427.6C287.456 429.774 288.816 431.507 290.456 432.934C300.95 442.067 324.11 437.227 334.483 432.24C343.016 428.147 350.416 422.12 356.763 415.054C361.163 410.147 365.07 404.76 368.416 399.094C372.336 392.467 375.616 384.814 375.19 377.307C378.083 380.48 380.883 383.734 383.483 387.16C388.403 393.654 392.696 400.614 396.416 407.854C404.083 422.827 409.056 439.12 410.496 455.827C410.51 455.934 410.55 456.04 410.563 456.147C413.99 456.414 417.403 456.667 420.83 456.92C421.03 456.294 421.11 455.614 421.056 454.907C419.576 437.947 414.843 421.454 407.51 406.227Z" fill="#89D25E"/>
<path d="M603.443 418.507C597.176 417.84 590.536 416.214 585.976 412.067C584.803 428.907 582.19 445.64 578.083 462.094C598.123 461.934 618.163 461.48 638.19 460.72C639.243 460.68 640.296 460.627 641.35 460.587C649.883 460.254 658.403 459.854 666.937 459.4C668.537 459.307 670.137 459.24 671.737 459.147C681.35 458.614 690.963 458.027 700.576 457.347C700.723 441.547 702.496 425.814 705.763 410.374C687.376 407.68 669.536 405.467 652.23 403.694C648.256 407.68 643.763 410.947 640.35 412.734C629.15 418.587 616.016 419.867 603.443 418.507Z" fill="#E9A12C"/>
<path d="M410.563 456.147C410.55 456.04 410.51 455.934 410.496 455.827C409.056 439.12 404.083 422.827 396.416 407.854C382.03 410.08 368.803 412.52 356.763 415.054C350.416 422.12 343.016 428.147 334.483 432.24C324.11 437.227 300.95 442.067 290.456 432.934C274.816 438.28 266.816 442.067 266.816 442.067C305.39 446.227 343.883 450.16 382.35 453.747C391.75 454.627 401.15 455.4 410.563 456.147Z" fill="#E9A12C"/>
<path d="M731.763 432.72C725.083 432.014 717.95 430.147 713.856 424.854C712.216 435.347 711.323 445.934 711.19 456.547C716.403 456.147 721.616 455.734 726.83 455.307C732.776 454.8 738.723 454.307 744.656 453.747C783.11 450.16 821.603 446.227 860.176 442.067C830.216 434.214 801.31 427.6 773.456 422.067C770.736 424.36 768.003 426.227 765.763 427.4C755.443 432.787 743.336 433.974 731.763 432.72Z" fill="#E9A12C"/>
<path d="M421.056 454.907C421.11 455.614 421.03 456.294 420.83 456.92C423.083 457.094 425.323 457.28 427.563 457.44C472.83 460.587 518.163 462.174 563.496 462.174C564.71 462.174 565.923 462.16 567.136 462.147C572.563 441.28 575.47 419.854 576.016 398.32C509.47 395.88 453.123 399.827 407.51 406.227C414.843 421.454 419.576 437.947 421.056 454.907Z" fill="#E9A12C"/>
<path d="M719.283 264.934C718.95 262.027 721.03 259.4 723.936 259.067C726.83 258.72 729.47 260.8 729.803 263.707C731.976 282.334 737.683 300.667 748.216 315.427C752.963 308.947 758.056 302.72 763.43 296.734C764.763 286.667 763.416 276.227 759.243 266.974C753.376 253.974 738.443 238.027 723.243 236.587C707.19 235.067 698.896 261.254 698.283 273.56C697.55 288.4 702.656 303.067 710.283 315.814C714.736 323.24 720.79 330.654 729.283 332.44C731.83 332.974 734.363 332.92 736.816 332.44C738.443 329.787 740.083 327.134 741.803 324.547C728.43 307.307 721.763 286.014 719.283 264.934Z" fill="#77CB44"/>
<path d="M334.483 432.24C343.016 428.147 350.416 422.12 356.763 415.054C361.163 410.147 365.07 404.76 368.416 399.094C372.336 392.467 375.616 384.814 375.19 377.307C372.563 374.44 369.816 371.68 366.976 369.04C358.056 372.107 348.163 377.68 339.456 384.614C330.403 391.787 322.656 400.427 318.336 408.76C316.99 411.36 313.79 412.374 311.19 411.014C308.603 409.667 307.59 406.467 308.936 403.88C314.256 393.694 322.936 384.227 332.856 376.32C340.696 370.107 349.296 364.894 357.83 361.24C354.87 358.96 351.83 356.8 348.71 354.774C347.096 354.587 345.483 354.494 343.896 354.494C325.763 354.454 307.803 363.334 296.83 377.774C287.51 390.04 280.07 412.427 286.536 427.6C287.456 429.774 288.816 431.507 290.456 432.934C300.95 442.067 324.11 437.227 334.483 432.24Z" fill="#77CB44"/>
<path d="M586.683 393.814C601.03 385.8 617.363 381.48 633.803 381.48C636.283 381.48 638.763 381.574 641.243 381.774C644.163 382.014 646.336 384.56 646.096 387.48C645.87 390.387 643.323 392.56 640.403 392.334C638.203 392.16 636.003 392.067 633.803 392.067C617.03 392.067 600.23 397.16 586.296 406.454C586.203 408.32 586.11 410.2 585.976 412.067C590.536 416.214 597.176 417.84 603.443 418.507C616.016 419.867 629.15 418.587 640.35 412.734C643.763 410.947 648.256 407.68 652.23 403.694C659.07 396.827 664.376 387.787 660.03 380.294C653.496 369.067 635.87 363.214 623.736 363.307C609.456 363.427 595.39 370.56 586.87 382.027C586.776 382.147 586.683 382.28 586.603 382.4C586.683 385.24 586.736 388.067 586.736 390.907C586.736 391.88 586.696 392.84 586.683 393.814Z" fill="#77CB44"/>
<path d="M315.696 29.5604C315.523 26.6404 317.75 24.1337 320.67 23.947C323.59 23.787 326.096 26.0003 326.27 28.9203C327.363 47.2003 330.99 65.3204 336.963 82.6271C340.696 83.2804 344.403 83.987 348.11 84.7737C353.456 79.4803 355.203 71.3204 355.723 63.6937C356.696 49.5737 354.67 34.907 347.63 22.6404C341.79 12.4537 323.416 -6.18631 310.456 2.04035C298.163 9.84035 292.39 29.8403 293.03 43.4137C293.67 56.867 299.923 69.8804 309.75 79.067C314.91 79.5204 320.056 80.0936 325.19 80.787C319.936 64.187 316.736 46.9471 315.696 29.5604Z" fill="#77CB44"/>
<path d="M160.123 736.6C159.35 738.48 157.896 740.08 156.123 741.067C155.043 741.68 153.843 742.054 152.603 742.12C146.283 742.52 141.576 735.027 146.55 730.334C150.243 726.84 158.256 726.64 160.363 732.107C160.923 733.534 160.696 735.174 160.123 736.6ZM138.443 737.014C138.016 740.507 134.07 742.294 130.643 743.107C118.643 745.934 105.723 744.734 94.4431 739.734C90.6831 738.067 87.0698 735.96 84.1765 733.04C81.8165 730.654 77.8831 725.454 78.7231 721.774C79.9364 716.48 87.2964 716.814 91.0831 718.2C93.6164 719.134 95.9631 720.507 98.4564 721.547C109.51 726.16 122.736 724 133.27 729.707C136.056 731.214 138.843 733.854 138.443 737.014ZM179.456 708.04C169.963 713.84 159.056 717.2 148.296 717.214C142.59 717.214 136.91 716.254 131.59 714.147C126.27 712.04 121.31 708.76 117.123 704.267C115.136 702.12 115.256 698.774 117.403 696.774C119.536 694.787 122.896 694.907 124.883 697.054C127.976 700.374 131.55 702.734 135.496 704.294C139.443 705.867 143.776 706.627 148.296 706.627C156.816 706.627 165.99 703.88 173.91 699.014C181.856 694.147 188.496 687.227 192.283 679.214C192.896 677.907 193.456 676.587 193.963 675.254C186.163 667.654 174.35 664.84 163.283 663.734C141.896 661.614 119.576 663.974 100.616 674.08C84.8831 682.467 55.7365 709.454 67.6032 729.507C78.8698 748.52 108.923 758.24 129.55 757.894C153.843 757.507 177.656 745.16 191.99 725.56C200.27 714.227 205.083 698.614 200.723 685.894C195.816 695.094 188.243 702.654 179.456 708.04Z" fill="#77CB44"/>
<path d="M1043.7 627.774C1047.14 615.787 1057.83 606.814 1060.76 594.707C1061.96 589.747 1062 580.854 1068.24 579.174C1074.04 577.614 1075.59 584.427 1075.38 588.614C1074.8 600.12 1070.68 611.427 1063.86 620.694C1060.11 625.774 1055.52 630.267 1050.3 633.814C1049 634.68 1047.48 635.547 1045.96 635.187C1044.55 634.84 1043.56 633.48 1043.28 632.054C1043 630.64 1043.3 629.16 1043.7 627.774ZM1059.86 557.787C1065.2 554.094 1070.74 560.067 1071.92 565.08C1072.55 567.707 1071.76 570.787 1069.55 572.32C1067.3 573.894 1064.15 573.52 1061.76 572.187C1059.24 570.76 1057.28 568.267 1056.82 565.414C1056.34 562.574 1057.48 559.44 1059.86 557.787ZM982.15 627C991.403 627.014 1000.8 624.374 1008.56 619.64C1016.32 614.907 1022.4 608.147 1025.48 599.854C1026.51 597.12 1029.55 595.72 1032.3 596.734C1035.03 597.76 1036.43 600.8 1035.42 603.547C1031.39 614.374 1023.55 622.907 1014.07 628.68C1004.58 634.467 993.376 637.587 982.15 637.587C977.55 637.587 972.923 637.067 968.43 635.947C962.856 634.574 957.603 632.44 952.67 629.76C957.19 637.614 964.31 643.987 972.443 648.08C983.07 653.427 995.283 655.134 1007.16 654.494C1037.24 652.867 1066.82 634.96 1078.99 607.4C1082.87 598.6 1084.99 588.894 1084.15 579.32C1083.3 569.734 1079.32 560.307 1072.35 553.667C1067.54 549.067 1060.78 545.88 1053.99 546.28C1048.14 546.614 1044.72 550.747 1040.3 554.174C1028.28 563.52 1014.23 570.24 999.39 573.64C984.336 577.094 967.23 577.84 956.403 588.894C950.083 595.36 947.216 604.64 947.763 613.707C954.616 619.374 962.443 623.574 970.963 625.667C974.59 626.56 978.35 627 982.15 627Z" fill="#77CB44"/>
<path d="M1114.68 229.894C1105.12 239.12 1093.43 246.147 1080.71 250C1078.36 250.707 1075.31 251.08 1073.95 249.054C1072.62 247.067 1074.02 244.414 1075.56 242.587C1084.64 231.894 1099.3 226.814 1107.52 215.44C1110.16 211.774 1112.03 207.587 1114.64 203.894C1117.24 200.2 1120.87 196.867 1125.34 196.147C1127.43 195.8 1129.72 196.107 1131.39 197.414C1139.86 204.014 1119.47 225.28 1114.68 229.894ZM1113.19 176.507C1116.35 170.96 1125.22 168.56 1130.24 173.254C1132.96 175.787 1133 180.414 1130.86 183.44C1128.71 186.48 1124.87 187.987 1121.15 188.027C1118.04 188.054 1114.67 186.947 1113.03 184.294C1111.6 181.974 1111.84 178.867 1113.19 176.507ZM1065.55 255.454C1063.6 256.76 1060.76 256.64 1059.06 255.027C1055.59 251.734 1058.14 243.987 1063.24 244.414C1068.56 244.854 1069.58 252.72 1065.55 255.454ZM1086.67 155.56C1071.16 160.84 1055.52 166.374 1041.91 175.494C1028.3 184.614 1016.72 197.814 1012.88 213.747C1011.87 217.947 1011.51 222.334 1011.76 226.68C1020.63 228.427 1029.36 229.76 1037.99 229.734C1038.67 229.734 1039.36 229.734 1040.04 229.707C1048.71 229.507 1057.71 227.507 1065.3 223.734C1072.9 219.947 1079 214.494 1082.52 207.32C1083.82 204.694 1086.99 203.614 1089.62 204.907C1092.23 206.2 1093.31 209.374 1092.03 211.987C1087.27 221.654 1079.2 228.64 1070.02 233.214C1060.79 237.787 1050.39 240.054 1040.3 240.294C1039.52 240.32 1038.76 240.334 1037.99 240.334C1029.72 240.32 1021.7 239.254 1013.82 237.84C1016.35 245.72 1021.12 252.747 1028.06 257.307C1041 265.814 1058.02 264.4 1073.07 260.747C1090.7 256.48 1108.03 249.4 1121.58 237.334C1135.12 225.28 1144.5 207.734 1143.82 189.614C1142.66 158.827 1112.58 146.747 1086.67 155.56Z" fill="#77CB44"/>
<path d="M293.816 109.387C294.576 112.787 294.31 116.32 293.896 119.787C292.403 132.227 288.776 144.827 280.803 154.507C278.59 157.187 274.79 159.774 271.923 157.787C269.51 156.12 269.803 152.507 270.59 149.68C272.723 142.04 276.55 134.974 278.856 127.387C280.296 122.667 280.963 117.787 280.483 112.854C280.19 109.84 278.63 105.654 280.083 102.707C283.976 94.8003 292.696 104.254 293.816 109.387ZM278.55 88.507C278.55 88.507 278.536 88.5204 278.536 88.5337C257.67 108.147 243.923 135.36 240.51 163.8C240.163 166.694 237.523 168.774 234.616 168.414C231.71 168.067 229.643 165.427 229.99 162.534C233.27 135.36 245.11 109.414 263.31 89.0136C253.256 89.6003 243.23 90.6404 233.283 92.1604C229.243 94.9337 225.456 98.0937 222.043 101.56C211.336 112.414 203.563 125.734 196.056 139C183.496 161.12 189.31 190.707 217.23 197.12C233.656 200.894 251.323 195.374 264.696 185.094C278.07 174.814 287.55 160.214 294.51 144.854C300.47 131.734 304.723 116.427 299.203 103.12C296.683 97.067 292.256 92.1203 286.83 88.507C285.123 88.4803 283.416 88.4271 281.71 88.4271C280.656 88.4271 279.603 88.4937 278.55 88.507Z" fill="#77CB44"/>
<path d="M956.91 324.32C939.936 328.96 923.763 336.627 909.457 346.88C907.083 348.587 903.777 348.04 902.07 345.667C900.363 343.28 900.91 339.974 903.283 338.28C919.003 327 936.79 318.64 955.483 313.707C955.536 313.707 955.576 313.707 955.63 313.694C955.203 311.08 954.723 308.494 954.123 305.92C951.87 304.214 949.35 302.84 946.67 302C938.123 299.347 928.696 301.08 920.616 304.92C912.523 308.76 905.55 314.547 898.737 320.347C887.363 330.027 884.617 347.52 898.737 356.667C907.043 362.054 917.897 362.574 927.337 359.587C936.79 356.614 944.95 350.454 951.883 343.387C953.816 341.414 955.67 339.254 957.323 336.974C957.323 336.4 957.363 335.814 957.363 335.227C957.363 331.574 957.19 327.934 956.91 324.32Z" fill="#77CB44"/>
<path d="M166.39 288.96C163.963 287.32 163.336 284.014 164.99 281.6C166.63 279.187 169.923 278.56 172.35 280.214C192.763 294.134 209.11 313.774 219.243 336.294C222.896 334.707 226.616 333.28 230.376 331.987C235.723 321.76 234.256 308.267 227.136 297.534C220.35 287.294 213.336 277.014 204.11 268.88C194.896 260.747 183.096 254.88 170.803 255.147C158.51 255.414 146.016 262.84 142.11 274.494C138.416 285.507 142.71 297.587 148.23 307.814C154.696 319.774 163.163 331 174.496 338.507C181.79 343.347 190.39 346.454 199.07 347.04C202.523 344.827 206.083 342.787 209.71 340.88C200.39 320.054 185.23 301.8 166.39 288.96Z" fill="#77CB44"/>
<path d="M1040.3 240.294C1050.39 240.054 1060.79 237.787 1070.02 233.214C1079.2 228.64 1087.27 221.654 1092.03 211.987C1093.31 209.374 1092.23 206.2 1089.62 204.907C1086.99 203.614 1083.82 204.694 1082.52 207.32C1079 214.494 1072.9 219.947 1065.3 223.734C1057.71 227.507 1048.71 229.507 1040.04 229.707C1039.36 229.734 1038.67 229.734 1037.99 229.734C1029.36 229.76 1020.63 228.427 1011.76 226.68C1003.22 225.014 994.523 222.947 985.643 221.307C971.75 218.774 957.67 217.547 943.576 217.547C942.563 217.547 941.563 217.6 940.55 217.614C931.523 217.72 922.523 218.334 913.563 219.44C913.496 218.68 913.456 217.92 913.456 217.174C913.456 210.84 915.763 204.374 919.523 197.934C923.256 191.507 928.39 185.227 933.523 179.374C938.883 173.227 944.576 166.44 949.043 158.92C953.496 151.427 956.776 143.08 956.79 133.96C956.79 131.96 956.63 129.947 956.296 127.907C955.816 125.027 953.096 123.08 950.203 123.547C947.323 124.027 945.363 126.76 945.843 129.64C946.083 131.094 946.203 132.534 946.203 133.96C946.203 140.44 943.816 146.987 939.936 153.52C936.083 160.027 930.79 166.4 925.55 172.4C920.27 178.44 914.71 185.174 910.376 192.6C906.043 200.027 902.883 208.254 902.87 217.174C902.87 218.107 902.936 219.054 903.003 220C903.03 220.32 903.043 220.64 903.083 220.974C859.99 228.2 818.79 246.76 785.443 275.174C777.616 281.854 770.31 289.107 763.43 296.734C758.056 302.72 752.963 308.947 748.216 315.427C737.683 300.667 731.976 282.334 729.803 263.707C729.47 260.8 726.83 258.72 723.936 259.067C721.03 259.4 718.95 262.027 719.283 264.934C721.763 286.014 728.43 307.307 741.803 324.547C740.083 327.134 738.443 329.787 736.816 332.44C722.15 356.414 711.576 382.88 705.763 410.374C702.496 425.814 700.723 441.547 700.576 457.347C704.11 457.094 707.643 456.814 711.19 456.547C711.323 445.934 712.216 435.347 713.856 424.854C714.11 423.227 714.376 421.614 714.656 420C714.91 419.934 715.163 419.88 715.403 419.774C728.656 414.36 742.683 410.827 756.923 409.334C759.83 409.027 761.95 406.427 761.643 403.52C761.336 400.614 758.736 398.494 755.83 398.8C742.643 400.187 729.643 403.2 717.19 407.747C718.243 403.214 719.456 398.734 720.79 394.267C732.403 355.24 754.07 319.12 783.563 291.12C785.79 289.014 788.096 286.974 790.403 284.947C790.51 284.96 790.616 285 790.723 285.014C802.603 286.054 813.856 292.24 822.083 301.32C830.323 310.387 835.43 322.214 835.403 334.12C835.403 334.654 835.403 335.187 835.376 335.734C835.283 338.654 837.563 341.107 840.483 341.2C843.416 341.307 845.856 339.014 845.963 336.094C845.99 335.44 846.003 334.787 846.003 334.12C845.99 319.187 839.736 305.014 829.923 294.2C822.216 285.707 812.203 279.254 801.016 276.2C803.456 274.334 805.91 272.507 808.416 270.747C829.736 255.72 853.71 244.48 878.843 237.307C879.23 237.387 879.63 237.454 880.043 237.454C896.656 237.494 912.243 244.547 925.03 255.894C937.803 267.227 947.616 282.827 952.456 299.254C953.096 301.454 953.616 303.694 954.123 305.92C954.723 308.494 955.203 311.08 955.63 313.694C955.576 313.707 955.536 313.707 955.483 313.707C936.79 318.64 919.003 327 903.283 338.28C900.91 339.974 900.363 343.28 902.07 345.667C903.776 348.04 907.083 348.587 909.456 346.88C923.763 336.627 939.936 328.96 956.91 324.32C957.19 327.934 957.363 331.574 957.363 335.227C957.363 335.814 957.323 336.4 957.323 336.974C957.07 359.014 952.123 381.6 945.376 403.187C940.123 420.014 933.79 436.68 927.816 453.6C927.79 453.667 927.736 453.72 927.71 453.787C927.616 454.027 927.55 454.28 927.483 454.52C921.443 471.707 915.803 489.16 912.11 507.307C909.696 519.174 908.163 531.454 908.163 543.747C908.163 556.96 909.936 570.2 914.336 582.907C918.616 595.24 925.616 606.814 934.803 616.2C940.07 621.56 946.07 626.174 952.67 629.76C957.603 632.44 962.856 634.574 968.43 635.947C972.923 637.067 977.55 637.587 982.15 637.587C993.376 637.587 1004.58 634.467 1014.07 628.68C1023.55 622.907 1031.39 614.374 1035.42 603.547C1036.43 600.8 1035.03 597.76 1032.3 596.734C1029.55 595.72 1026.51 597.12 1025.48 599.854C1022.4 608.147 1016.32 614.907 1008.56 619.64C1000.8 624.374 991.403 627.014 982.15 627C978.35 627 974.59 626.56 970.963 625.667C962.443 623.574 954.616 619.374 947.763 613.707C945.896 612.16 944.083 610.534 942.376 608.787C934.363 600.614 928.123 590.32 924.35 579.427C920.403 568.067 918.75 556.014 918.75 543.747C918.75 532.334 920.176 520.747 922.483 509.414C924.67 498.614 927.683 487.947 931.043 477.347C932.55 472.574 934.123 467.827 935.763 463.067C957.15 472.8 976.843 486.294 993.563 502.814C995.643 504.867 998.99 504.854 1001.04 502.774C1003.11 500.694 1003.08 497.334 1001 495.28C983.163 477.654 962.136 463.32 939.27 453.04C940.376 449.92 941.483 446.8 942.616 443.667C947.043 431.347 951.523 418.96 955.483 406.347C962.59 383.587 967.95 359.4 967.963 335.227C967.963 322.134 966.376 309.04 962.603 296.267C957.176 277.88 946.403 260.72 932.07 247.974C924.056 240.854 914.87 235.094 904.883 231.4C917.67 229.267 930.63 228.134 943.576 228.134C957.043 228.134 970.496 229.32 983.736 231.734C993.55 233.494 1003.55 235.987 1013.82 237.84C1021.7 239.254 1029.72 240.32 1037.99 240.334C1038.76 240.334 1039.52 240.32 1040.3 240.294Z" fill="#BDE375"/>
<path d="M568.39 462.147C571.616 462.134 574.856 462.107 578.083 462.094C582.19 445.64 584.803 428.907 585.976 412.067C586.11 410.2 586.203 408.32 586.296 406.454C600.23 397.16 617.03 392.067 633.803 392.067C636.003 392.067 638.203 392.16 640.403 392.334C643.323 392.56 645.87 390.387 646.096 387.48C646.336 384.56 644.163 382.014 641.243 381.774C638.763 381.574 636.283 381.48 633.803 381.48C617.363 381.48 601.03 385.8 586.683 393.814C586.696 392.84 586.736 391.88 586.736 390.907C586.736 388.067 586.683 385.24 586.603 382.4C585.19 331.347 571.243 280.547 546.816 235.547C528.883 202.507 505.283 172.6 476.856 148.08C472.776 144.56 468.59 141.16 464.31 137.867C475.59 113.134 496.643 92.827 521.803 82.547C524.51 81.4403 525.816 78.347 524.71 75.6404C523.603 72.9337 520.51 71.6403 517.803 72.747C490.763 83.827 468.283 105.134 455.63 131.44C454.176 130.414 452.71 129.4 451.23 128.387C446.563 125.2 441.803 122.12 436.936 119.214C409.35 102.76 379.256 91.387 348.11 84.7737C344.403 83.987 340.696 83.2804 336.963 82.6271C330.99 65.3204 327.363 47.2003 326.27 28.9203C326.096 26.0003 323.59 23.787 320.67 23.947C317.75 24.1337 315.523 26.6404 315.696 29.5604C316.736 46.9471 319.936 64.187 325.19 80.787C320.056 80.0936 314.91 79.5204 309.75 79.067C300.43 78.267 291.07 77.8404 281.71 77.8404C222.136 77.8404 162.39 94.107 111.79 125.267C90.7229 138.254 71.203 153.747 54.003 171.84C51.9897 173.96 52.0696 177.307 54.1896 179.334C56.3096 181.347 59.6696 181.254 61.6829 179.134C78.2429 161.694 97.1096 146.72 117.496 134.174C152.576 112.614 192.296 98.4271 233.283 92.1604C243.23 90.6404 253.256 89.6003 263.31 89.0137C245.11 109.414 233.27 135.36 229.99 162.534C229.643 165.427 231.71 168.067 234.616 168.414C237.523 168.774 240.163 166.694 240.51 163.8C243.923 135.36 257.67 108.147 278.536 88.5337C278.536 88.5204 278.55 88.507 278.55 88.507C279.603 88.4937 280.656 88.4271 281.71 88.4271C283.416 88.4271 285.123 88.4804 286.83 88.507C337.603 89.3204 387.923 102.307 431.51 128.307C476.39 155.067 512.563 194.64 537.51 240.6C547.043 258.16 554.91 276.64 561.016 295.667C563.243 302.574 565.203 309.56 566.95 316.6C540.95 304.28 512.256 297.787 483.496 297.787C477.843 297.787 472.203 298.04 466.563 298.547C463.656 298.8 461.496 301.374 461.763 304.28C462.016 307.2 464.59 309.347 467.51 309.094C472.816 308.614 478.163 308.387 483.496 308.387C513.47 308.374 543.483 315.8 569.936 329.88C570.723 333.76 571.456 337.654 572.096 341.547C574.763 357.894 576.15 374.414 576.15 390.907C576.15 393.387 576.07 395.854 576.016 398.32C575.47 419.854 572.563 441.28 567.136 462.147C567.55 462.147 567.963 462.147 568.39 462.147Z" fill="#BDE375"/>
<path d="M332.856 376.32C322.936 384.227 314.256 393.694 308.936 403.88C307.59 406.467 308.603 409.667 311.19 411.014C313.79 412.374 316.99 411.36 318.336 408.76C322.656 400.427 330.403 391.787 339.456 384.614C348.163 377.68 358.056 372.107 366.976 369.04C369.816 371.68 372.563 374.44 375.19 377.307C378.083 380.48 380.883 383.734 383.483 387.16C388.403 393.654 392.696 400.614 396.416 407.854C404.083 422.827 409.056 439.12 410.496 455.827C410.51 455.934 410.55 456.04 410.563 456.147C413.99 456.414 417.403 456.667 420.83 456.92C421.03 456.294 421.11 455.614 421.056 454.907C419.576 437.947 414.843 421.454 407.51 406.227C403.176 397.24 397.936 388.707 391.923 380.76C385.976 372.92 379.243 365.667 371.883 359.134C370.443 357.854 368.95 356.667 367.456 355.454C372.99 343.16 375.843 329.734 375.843 316.28C375.843 309.854 375.203 303.427 373.896 297.12C373.296 294.254 370.496 292.414 367.63 293.014C364.763 293.6 362.923 296.414 363.523 299.267C364.683 304.854 365.256 310.56 365.256 316.28C365.256 327.427 363.056 338.6 358.803 348.88C355.35 346.467 351.83 344.174 348.176 342.08C341.856 338.44 335.27 335.254 328.403 332.667C312.59 326.72 295.803 323.854 279.016 323.854C262.523 323.867 246.003 326.64 230.376 331.987C226.616 333.28 222.896 334.707 219.243 336.294C209.11 313.774 192.763 294.134 172.35 280.214C169.923 278.56 166.63 279.187 164.99 281.6C163.336 284.014 163.963 287.32 166.39 288.96C185.23 301.8 200.39 320.054 209.71 340.88C206.083 342.787 202.523 344.827 199.07 347.04C191.616 351.814 184.576 357.267 178.136 363.427C153.376 387.174 138.363 419.974 134.91 453.88C134.91 453.907 134.883 453.934 134.883 453.96C134.683 454.68 134.643 455.4 134.736 456.094C134.363 460.32 134.15 464.574 134.15 468.814C134.15 483.507 136.363 498.2 140.976 512.24C142.39 516.547 144.003 520.734 145.75 524.84C146.536 526.694 147.336 528.52 148.176 530.334C132.776 536.214 120.403 548.974 115.23 564.654C114.323 567.427 115.83 570.414 118.616 571.334C121.39 572.24 124.376 570.734 125.296 567.947C129.47 555.134 140.11 544.334 152.83 539.854C154.63 543.36 156.51 546.8 158.416 550.227C159.283 551.774 160.163 553.32 161.043 554.867C168.776 568.374 176.896 581.467 183.603 594.974C192.216 612.28 198.456 631.827 198.443 650.214C198.443 658.894 197.056 667.307 193.963 675.254C193.456 676.587 192.896 677.907 192.283 679.214C188.496 687.227 181.856 694.147 173.91 699.014C165.99 703.88 156.816 706.627 148.296 706.627C143.776 706.627 139.443 705.867 135.496 704.294C131.55 702.734 127.976 700.374 124.883 697.054C122.896 694.907 119.536 694.787 117.403 696.774C115.256 698.774 115.136 702.12 117.123 704.267C121.31 708.76 126.27 712.04 131.59 714.147C136.91 716.254 142.59 717.214 148.296 717.214C159.056 717.2 169.963 713.84 179.456 708.04C188.243 702.654 195.816 695.094 200.723 685.894C201.11 685.174 201.51 684.48 201.856 683.747C206.923 673.054 209.03 661.64 209.03 650.214C209.016 629.454 202.163 608.56 193.083 590.267C186.07 576.16 177.843 562.894 170.23 549.6C162.616 536.32 155.656 523.014 151.03 508.934C147.416 497.947 145.416 486.48 144.883 474.907C144.79 472.88 144.736 470.854 144.736 468.814C144.736 466.72 144.79 464.614 144.883 462.52C160.936 468.2 175.576 477.92 186.95 490.574C188.896 492.747 192.243 492.92 194.43 490.974C196.603 489.014 196.776 485.667 194.816 483.494C181.63 468.827 164.576 457.84 145.843 451.72C146.23 448.614 146.696 445.52 147.296 442.454C152.536 415.48 165.71 389.987 185.47 371.08C210.163 347.387 244.696 334.427 279.016 334.44C294.603 334.44 310.123 337.107 324.67 342.587C333.096 345.76 341.136 349.88 348.71 354.774C351.83 356.8 354.87 358.96 357.83 361.24C349.296 364.894 340.696 370.107 332.856 376.32Z" fill="#BDE375"/>
<path d="M568.39 462.147C591.656 462.08 614.923 461.6 638.19 460.72C618.163 461.48 598.123 461.934 578.083 462.094C574.856 462.107 571.616 462.134 568.39 462.147Z" fill="#FBD33E"/>
<path d="M726.83 455.307C721.616 455.734 716.403 456.147 711.19 456.547C707.643 456.814 704.11 457.094 700.576 457.347C690.963 458.027 681.35 458.614 671.736 459.147C690.11 458.12 708.47 456.84 726.83 455.307Z" fill="#FBD33E"/>
<path d="M666.936 459.4C658.403 459.854 649.883 460.254 641.35 460.587C649.883 460.24 658.403 459.854 666.936 459.4Z" fill="#FBD33E"/>
<path d="M750.976 895.174C711.323 925.494 668.816 952.88 621.936 970C563.79 991.227 500.976 995.947 439.07 996.88C422.736 997.134 406.403 997.12 390.07 996.867C391.736 999.934 393.39 1003 395.083 1006.03C395.083 1006.03 564.843 1088.52 731.923 1006.03C735.016 1000.47 738.07 994.827 741.096 989.147C742.003 987.454 742.896 985.747 743.79 984.04C745.95 979.934 748.096 975.814 750.216 971.654C751.176 969.774 752.123 967.894 753.07 966.014C755.23 961.72 757.363 957.387 759.483 953.04C760.256 951.44 761.043 949.854 761.803 948.24C767.643 936.08 773.31 923.707 778.776 911.12C779.15 910.267 779.51 909.4 779.883 908.534C782.216 903.107 784.523 897.64 786.79 892.147C787.363 890.76 787.923 889.36 788.496 887.96C790.63 882.72 792.723 877.454 794.79 872.16C795.27 870.92 795.75 869.68 796.23 868.44C798.71 862.014 801.136 855.547 803.496 849.027C803.483 849.04 803.47 849.054 803.456 849.067C787.576 866.054 769.483 881.014 750.976 895.174Z" fill="#FCCC2B"/>
<path d="M395.083 1006.03C395.003 1009.23 394.936 1012.03 394.856 1014.53C394.616 1022.05 394.323 1026.89 394.003 1031.77C393.336 1041.57 397.31 1050.79 404.216 1057.03C405.203 1057.92 406.243 1058.75 407.35 1059.51C410.283 1061.55 413.603 1063.11 417.23 1064.05C463.55 1076.13 513.776 1081.53 563.496 1080.93C613.23 1081.53 663.443 1076.13 709.776 1064.05C712.483 1063.35 715.043 1062.29 717.376 1060.95C719.723 1059.6 721.856 1057.97 723.75 1056.12C725.003 1054.88 726.123 1053.53 727.15 1052.12C727.643 1051.44 728.096 1050.72 728.536 1050C728.736 1049.68 728.963 1049.36 729.15 1049.03C731.563 1044.68 732.95 1039.73 733.07 1034.55C733.083 1033.63 733.07 1032.71 733.003 1031.77C732.67 1026.89 732.39 1022.05 732.15 1014.53C732.07 1012.03 731.99 1009.23 731.923 1006.03C564.843 1088.52 395.083 1006.03 395.083 1006.03Z" fill="#F8A323"/>
<g clip-path="url(#clip1_2_2)">
<mask id="mask0_2_2" style="mask-type:luminance" maskUnits="userSpaceOnUse" x="185" y="445" width="1943" height="1945">
<path d="M185.657 445.095H2127.52V2389.19H185.657V445.095Z" fill="white"/>
</mask>
<g mask="url(#mask0_2_2)">
<mask id="mask1_2_2" style="mask-type:luminance" maskUnits="userSpaceOnUse" x="369" y="799" width="64" height="35">
<path d="M370 799.27H432.365V833H370V799.27Z" fill="white"/>
</mask>
<g mask="url(#mask1_2_2)">
<g opacity="0.5">
<path d="M432.365 816.135C432.365 825.451 418.403 833.002 401.182 833.002C383.962 833.002 370 825.451 370 816.135C370 806.819 383.962 799.268 401.182 799.268C418.403 799.268 432.365 806.819 432.365 816.135Z" fill="#FF7271"/>
</g>
</g>
<mask id="mask2_2_2" style="mask-type:luminance" maskUnits="userSpaceOnUse" x="694" y="799" width="64" height="35">
<path d="M694.634 799.27H757.002V833H694.634V799.27Z" fill="white"/>
</mask>
<g mask="url(#mask2_2_2)">
<g opacity="0.5">
<path d="M694.635 816.135C694.635 825.451 708.597 833.002 725.817 833.002C743.038 833.002 757 825.451 757 816.135C757 806.819 743.038 799.268 725.817 799.268C708.597 799.268 694.635 806.819 694.635 816.135Z" fill="#FF7271"/>
</g>
</g>
<path d="M516.251 751.845C516.251 789.315 485.911 819.69 448.484 819.69C411.057 819.69 380.717 789.315 380.717 751.845C380.717 714.374 411.057 684 448.484 684C485.911 684 516.251 714.374 516.251 751.845Z" fill="#240B4A"/>
<mask id="mask3_2_2" style="mask-type:luminance" maskUnits="userSpaceOnUse" x="380" y="749" width="137" height="71">
<path d="M380.758 749.598H516.039V819.691H380.758V749.598Z" fill="white"/>
</mask>
<g mask="url(#mask3_2_2)">
<path d="M483.103 770.903C466.515 777.354 450.149 776.51 434.036 769.111C414.462 760.121 398.931 742.547 380.759 752.621C381.178 789.73 411.32 819.688 448.483 819.688C484.497 819.688 513.866 791.546 516.04 756.039C504.995 761.257 494.028 766.657 483.103 770.903Z" fill="#240B4A"/>
</g>
<path d="M493.921 725.769C493.921 739.292 482.969 750.257 469.462 750.257C455.954 750.257 445.006 739.292 445.006 725.769C445.006 712.246 455.954 701.282 469.462 701.282C482.969 701.282 493.921 712.246 493.921 725.769Z" fill="white"/>
<path d="M427.074 776.301C427.074 783.533 421.217 789.397 413.993 789.397C406.766 789.397 400.909 783.533 400.909 776.301C400.909 769.069 406.766 763.206 413.993 763.206C421.217 763.206 427.074 769.069 427.074 776.301Z" fill="white"/>
<path d="M424.722 797.049C424.722 792.823 428.144 789.397 432.365 789.397C436.587 789.397 440.008 792.823 440.008 797.049C440.008 801.276 436.587 804.701 432.365 804.701C428.144 804.701 424.722 801.276 424.722 797.049Z" fill="white"/>
<path d="M746.281 751.845C746.281 789.315 715.941 819.69 678.514 819.69C641.09 819.69 610.747 789.315 610.747 751.845C610.747 714.374 641.09 684 678.514 684C715.941 684 746.281 714.374 746.281 751.845Z" fill="#240B4A"/>
<mask id="mask4_2_2" style="mask-type:luminance" maskUnits="userSpaceOnUse" x="610" y="745" width="137" height="75">
<path d="M610.749 745.885H746.015V819.691H610.749V745.885Z" fill="white"/>
</mask>
<g mask="url(#mask4_2_2)">
<path d="M701.457 780.542C666.345 788.521 642.786 765.16 615.328 748.336C613.899 747.457 612.474 746.645 611.048 745.887C610.877 747.854 610.749 749.833 610.749 751.847C610.749 789.314 641.089 819.688 678.516 819.688C714.169 819.688 743.328 792.105 746.015 757.1C731.079 765.125 718.561 776.654 701.457 780.542Z" fill="#240B4A"/>
</g>
<path d="M723.951 725.769C723.951 739.292 712.999 750.257 699.491 750.257C685.984 750.257 675.036 739.292 675.036 725.769C675.036 712.246 685.984 701.282 699.491 701.282C712.999 701.282 723.951 712.246 723.951 725.769Z" fill="white"/>
<path d="M657.103 776.301C657.103 783.533 651.247 789.397 644.023 789.397C636.795 789.397 630.943 783.533 630.943 776.301C630.943 769.069 636.795 763.206 644.023 763.206C651.247 763.206 657.103 769.069 657.103 776.301Z" fill="white"/>
<path d="M654.752 797.049C654.752 792.823 658.173 789.397 662.395 789.397C666.617 789.397 670.038 792.823 670.038 797.049C670.038 801.276 666.617 804.701 662.395 804.701C658.173 804.701 654.752 801.276 654.752 797.049Z" fill="white"/>
<path d="M598.34 788.66C593.128 784.538 586.017 792.844 563.499 792.844C540.985 792.844 533.874 784.538 528.662 788.66C523.45 792.777 527.839 824.637 563.499 824.637C599.163 824.637 603.552 792.777 598.34 788.66Z" fill="#FF7271"/>
</g>
</g>
<path d="M536.096 341.76C530.39 341.787 524.71 340.76 519.23 339.214C511.47 337 504.056 333.707 496.576 330.654C493.27 329.307 489.803 327.974 486.23 328.227C482.67 328.467 478.99 330.774 478.35 334.28C477.883 336.867 479.15 339.534 481.043 341.36C482.936 343.174 485.39 344.294 487.843 345.267C503.243 351.44 520.523 353.52 536.643 349.574C538.616 349.094 540.643 348.494 542.176 347.16C543.643 345.894 544.99 343.414 543.176 341.934C541.616 340.667 537.883 341.747 536.096 341.76Z" fill="#9DD869"/>
<path d="M469.603 316.334C463.656 315.627 457.07 320.507 459.736 327.027C461.096 330.374 464.963 332.427 468.523 331.867C472.083 331.32 475.083 328.307 475.79 324.774C476.163 322.96 475.963 321 474.976 319.44C473.83 317.64 471.736 316.574 469.603 316.334Z" fill="#9DD869"/>
<path d="M133.27 729.707C122.736 724 109.51 726.16 98.4563 721.547C95.9629 720.507 93.6163 719.134 91.0829 718.2C87.2963 716.814 79.9363 716.48 78.7229 721.774C77.8829 725.454 81.8163 730.654 84.1763 733.04C87.0696 735.96 90.683 738.067 94.443 739.734C105.723 744.734 118.643 745.934 130.643 743.107C134.07 742.294 138.016 740.507 138.443 737.014C138.843 733.854 136.056 731.214 133.27 729.707Z" fill="#86D053"/>
<path d="M146.55 730.334C141.576 735.027 146.283 742.52 152.603 742.12C153.843 742.054 155.043 741.68 156.123 741.067C157.896 740.08 159.35 738.48 160.123 736.6C160.696 735.174 160.923 733.534 160.363 732.107C158.256 726.64 150.243 726.84 146.55 730.334Z" fill="#86D053"/>
<path d="M47.0164 140.467C42.2697 139.534 37.7098 145.947 34.9098 148.92C27.0698 157.214 20.3765 166.707 15.8031 177.2C13.2965 182.96 11.4431 189.014 10.4164 195.227C9.90975 198.254 9.61636 201.4 10.4297 204.36C11.2297 207.334 13.3631 210.094 16.3231 210.907C20.6031 212.067 25.0298 208.774 26.9365 204.76C28.8431 200.747 28.9631 196.16 29.5764 191.76C30.8031 182.934 34.1765 174.427 39.3365 167.174C42.4565 162.8 46.2164 158.84 48.5497 154C50.2297 150.534 52.8431 141.6 47.0164 140.467Z" fill="#9DD869"/>
<path d="M32.4831 210.867C29.4164 211.494 27.2165 215.92 27.3365 218.774C27.4565 221.694 29.4431 224.467 32.1897 225.48C34.9364 226.494 38.2698 225.654 40.2031 223.454C42.1231 221.24 42.4697 217.787 40.9897 215.267C39.5631 212.8 35.4564 210.267 32.4831 210.867Z" fill="#9DD869"/>
<path d="M280.483 112.854C280.963 117.787 280.296 122.667 278.856 127.387C276.55 134.974 272.723 142.04 270.59 149.68C269.803 152.507 269.51 156.12 271.923 157.787C274.79 159.774 278.59 157.187 280.803 154.507C288.776 144.827 292.403 132.227 293.896 119.787C294.31 116.32 294.576 112.787 293.816 109.387C292.696 104.254 283.976 94.8004 280.083 102.707C278.63 105.654 280.19 109.84 280.483 112.854Z" fill="#86D053"/>
<path d="M1121.15 188.027C1124.87 187.987 1128.71 186.48 1130.86 183.44C1133 180.414 1132.96 175.787 1130.24 173.254C1125.22 168.56 1116.35 170.96 1113.19 176.507C1111.84 178.867 1111.6 181.974 1113.03 184.294C1114.67 186.947 1118.04 188.054 1121.15 188.027Z" fill="#86D053"/>
<path d="M1125.34 196.147C1120.87 196.867 1117.24 200.2 1114.64 203.894C1112.03 207.587 1110.16 211.774 1107.52 215.44C1099.3 226.814 1084.64 231.894 1075.56 242.587C1074.02 244.414 1072.62 247.067 1073.95 249.054C1075.31 251.08 1078.36 250.707 1080.71 250C1093.43 246.147 1105.12 239.12 1114.68 229.894C1119.47 225.28 1139.86 204.014 1131.39 197.414C1129.72 196.107 1127.43 195.8 1125.34 196.147Z" fill="#86D053"/>
<path d="M1063.24 244.414C1058.14 243.987 1055.59 251.734 1059.06 255.027C1060.76 256.64 1063.6 256.76 1065.55 255.454C1069.58 252.72 1068.56 244.854 1063.24 244.414Z" fill="#86D053"/>
<path d="M903.563 154.547C906.243 156.147 909.723 154.907 912.323 153.174C926.563 143.774 928.923 123.68 940.163 110.854C942.91 107.72 950.363 99.387 943.163 97.0803C938.723 95.667 931.95 101.414 929.07 104.04C917.563 114.534 906.83 128.414 901.83 143.28C900.51 147.187 900.03 152.414 903.563 154.547Z" fill="#9DD869"/>
<path d="M903.937 167.747C903.31 165.6 901.337 163.92 899.123 163.64C894.483 163.054 891.07 168.2 890.67 172.24C890.47 174.28 891.003 176.427 892.35 177.96C893.71 179.494 895.923 180.28 897.883 179.72C900.056 179.08 901.47 177.027 902.51 175.027C903.683 172.774 904.643 170.187 903.937 167.747Z" fill="#9DD869"/>
<path d="M1061.76 572.187C1064.15 573.52 1067.3 573.894 1069.55 572.32C1071.76 570.787 1072.55 567.707 1071.92 565.08C1070.74 560.067 1065.2 554.094 1059.86 557.787C1057.48 559.44 1056.34 562.574 1056.82 565.414C1057.28 568.267 1059.24 570.76 1061.76 572.187Z" fill="#86D053"/>
<path d="M1045.96 635.187C1047.48 635.547 1049 634.68 1050.3 633.814C1055.52 630.267 1060.11 625.774 1063.86 620.694C1070.68 611.427 1074.8 600.12 1075.38 588.614C1075.59 584.427 1074.04 577.614 1068.24 579.174C1062 580.854 1061.96 589.747 1060.76 594.707C1057.83 606.814 1047.14 615.787 1043.7 627.774C1043.3 629.16 1043 630.64 1043.28 632.054C1043.56 633.48 1044.55 634.84 1045.96 635.187Z" fill="#86D053"/>
<path d="M726.83 455.307C708.47 456.84 690.11 458.12 671.736 459.147C670.136 459.24 668.536 459.307 666.936 459.4C658.403 459.854 649.883 460.24 641.35 460.587C640.296 460.627 639.243 460.68 638.19 460.72C614.923 461.6 591.656 462.08 568.39 462.147C567.963 462.147 567.55 462.147 567.136 462.147C565.923 462.16 564.71 462.174 563.496 462.174C518.163 462.174 472.83 460.587 427.563 457.44C425.323 457.28 423.083 457.094 420.83 456.92C417.403 456.667 413.99 456.414 410.563 456.147C401.15 455.4 391.75 454.627 382.35 453.747C343.883 450.16 305.39 446.227 266.816 442.067C266.31 447.467 265.883 452.867 265.496 458.267C265.163 463.12 264.856 467.974 264.59 472.827C264.576 472.987 264.563 473.16 264.563 473.32V473.334C267.176 475.694 270.216 477.64 273.403 479.054C281.763 482.734 291.07 483.4 300.176 484C415.176 491.547 530.536 493.827 645.75 490.814C679.15 489.947 712.75 488.64 745.856 493.16C778.976 497.667 811.976 508.387 838.109 529.214C847.589 536.76 856.029 545.787 862.963 555.8C863.176 550.6 863.336 545.374 863.47 540.16C863.523 537.947 863.549 535.747 863.576 533.534C863.643 529.947 863.683 526.347 863.696 522.734C863.709 520.56 863.709 518.374 863.709 516.187C863.696 511.6 863.63 507.014 863.55 502.414C863.523 501.36 863.523 500.307 863.496 499.24C863.363 493.64 863.163 488.04 862.923 482.427C862.843 480.694 862.75 478.947 862.656 477.214C862.443 472.974 862.203 468.734 861.923 464.494C861.816 462.787 861.71 461.067 861.59 459.36C861.176 453.6 860.723 447.84 860.176 442.067C821.603 446.227 783.11 450.16 744.656 453.747C738.723 454.307 732.776 454.8 726.83 455.307Z" fill="#FCCC2B"/>
</g>
<defs>
<clipPath id="clip0_2_2">
<rect width="1143.85" height="1080.98" fill="white"/>
</clipPath>
<clipPath id="clip1_2_2">
<rect width="387" height="149" fill="white" transform="translate(370 684)"/>
</clipPath>
</defs>
</svg>
